<?xml version="1.0" encoding="utf-8"?>
<!-- Generator: Adobe Illustrator 19.2.1, SVG Export Plug-In . SVG Version: 6.00 Build 0)  -->
<svg version="1.1" id="Layer_1" xmlns="http://www.w3.org/2000/svg" xmlns:xlink="http://www.w3.org/1999/xlink" x="0px" y="0px"
	 viewBox="0 0 1271.9 93" style="enable-background:new 0 0 1271.9 93;" xml:space="preserve">
<style type="text/css">
	.st0{fill:none;stroke:#231F20;stroke-width:0.3769;stroke-miterlimit:10;}
	.st1{opacity:0.2;enable-background:new    ;}
	.st2{opacity:0.6;enable-background:new    ;}
	.st3{fill:none;stroke:#000000;stroke-width:3.3348;stroke-miterlimit:10;}
	.st4{fill:none;stroke:#231F20;stroke-width:0.6782;stroke-miterlimit:10;}
	.st5{fill:#000102;}
	.st6{opacity:0.9;fill:#000102;}
	.st7{opacity:0.8;fill:#000102;}
	.st8{opacity:0.7;fill:#000102;}
	.st9{opacity:0.6;fill:#000102;}
	.st10{opacity:0.5;fill:#000102;}
	.st11{opacity:0.41;fill:#000102;}
	.st12{opacity:0.31;fill:#000102;}
	.st13{opacity:0.2;fill:#000102;}
	.st14{opacity:0.1;fill:#000102;}
	.st15{opacity:0;fill:#000102;}
	.st16{fill:#231F20;}
	.st17{fill:none;stroke:#231F20;stroke-width:0.9195;stroke-miterlimit:10;}
</style>
<g>
	<g>
		<g>
			<path d="M110.5,52.7c-1.8-1.6-3.6-3.2-5.2-5s-3.2-3.8-4.3-6.1c-0.5-1.1-1-2.4-0.8-3.8c0.1-0.7,0.3-1.4,0.8-2c0.4-0.6,1-1,1.6-1.3
				c1.2-0.6,2.5-0.9,3.7-1.1c1.3-0.2,2.5-0.2,3.8-0.2l-0.7,1.1c-0.4-0.6-0.7-1.2-1-1.9c-0.3-0.6-0.5-1.3-0.8-2
				c-0.4-1.3-0.8-2.8-0.7-4.3c0-0.8,0.2-1.5,0.5-2.3c0.3-0.7,0.8-1.4,1.4-2c1.2-1.1,2.7-1.6,4.2-1.8c2.9-0.4,5.7,0,8.4,0.5
				c2.7,0.5,5.3,1.2,7.9,2.1l-1.2,1.8c-0.9-1.1-1.8-2.2-2.6-3.4c-0.8-1.2-1.6-2.4-2.2-3.9c-0.3-0.7-0.6-1.5-0.5-2.6
				c0-0.5,0.3-1.3,0.9-1.7c0.5-0.4,1.1-0.6,1.6-0.6c0.9-0.1,1.7,0.1,2.5,0.2c0.7,0.2,1.4,0.4,2.1,0.6c2.7,1,5.2,2.3,7.7,3.6
				c2.5,1.3,4.9,2.8,7.3,4.2l-1.4,0.2c0.6-0.7,1.3-1.3,1.9-1.9c0.7-0.6,1.3-1.2,2-1.8c1.4-1.1,2.9-2.2,4.4-3.1
				c3.1-1.9,6.5-3.3,10.2-3.6c1.8-0.1,3.7,0,5.5,0.5s3.4,1.4,4.9,2.5s2.7,2.4,3.9,3.8c0.6,0.7,1.1,1.4,1.6,2.2
				c0.5,0.7,1,1.5,1.4,2.3l-0.7-0.1c1.3-1,2.6-1.8,4-2.6c1.4-0.8,2.8-1.6,4.3-2.2s3-1.1,4.6-1.3c0.8-0.1,1.7-0.1,2.5,0.1
				s1.6,0.6,2.3,1.1c0.6,0.6,1.1,1.3,1.4,2.1c0.3,0.8,0.5,1.6,0.6,2.4c0.2,1.6,0.2,3.2,0.1,4.8c-0.1,1.6-0.4,3.2-0.7,4.7
				c-0.3,1.6-0.7,3.1-1,4.6l-0.7-0.6c2.5-0.7,5.1-1.4,7.7-1.9c1.3-0.2,2.6-0.4,4-0.4c0.7,0,1.4,0,2.2,0.3c0.4,0.1,0.8,0.4,1.1,0.9
				s0.2,1.1,0.1,1.5c-0.3,0.8-0.7,1.4-1.1,1.9c-0.4,0.5-0.9,1-1.4,1.5c-1,0.9-2,1.8-3,2.6c-2.1,1.7-4.2,3.2-6.4,4.7l0.3-1.3
				c0.4,0.6,0.8,1.2,1.1,1.8s0.7,1.2,1,1.8c0.6,1.2,1.2,2.5,1.6,3.9c0.2,0.7,0.4,1.4,0.5,2.1c0.1,0.7,0.1,1.5,0,2.3
				s-0.5,1.6-1.1,2.3s-1.4,1.1-2.1,1.4c-1.5,0.5-3,0.5-4.4,0.4c-1.4-0.1-2.8-0.4-4.1-0.7c-2.7-0.6-5.2-1.5-7.8-2.5l1.7-1.3
				c0.1,1,0.2,1.9,0.3,2.8c0.1,0.9,0.1,1.9,0,2.8c-0.1,1.9-0.3,3.8-1,5.7c-0.4,0.9-0.9,1.9-1.8,2.7c-0.8,0.8-2,1.3-3.1,1.4
				s-2.2,0-3.2-0.3s-1.9-0.6-2.7-1.1c-1.7-0.9-3.3-1.9-4.7-3c-1.5-1.1-2.9-2.3-4.2-3.5c-2.7-2.4-5.2-5-7.7-7.6l2.2-0.2
				c-0.9,1.4-1.7,2.7-2.6,4c-0.9,1.3-1.8,2.6-2.8,3.9c-2,2.6-4,5.1-6.5,7.3c-0.7,0.5-1.3,1.1-2.2,1.5c-0.4,0.2-0.9,0.4-1.4,0.6
				c-0.5,0.1-1.2,0.2-1.8,0c-0.7-0.2-1.3-0.6-1.7-1c-0.4-0.5-0.7-0.9-0.8-1.4c-0.4-0.9-0.5-1.8-0.6-2.6c-0.2-1.7-0.1-3.3,0-5
				c0.1-1.6,0.3-3.2,0.5-4.8l1.6,1.3c-5.2,2-10.4,3.8-15.6,5.5c-5.3,1.7-10.6,3.2-16,4.3c-1.4,0.3-2.7,0.5-4.1,0.7s-2.8,0.3-4.2,0.2
				c-0.7,0-1.5-0.1-2.2-0.4c-0.7-0.2-1.6-0.8-1.9-1.7c-0.3-0.9,0-1.7,0.2-2.4c0.3-0.7,0.7-1.3,1.1-1.9c0.8-1.2,1.7-2.2,2.7-3.2
				s2-2,3-2.9C106.2,56.1,108.3,54.4,110.5,52.7z M110.8,52.8c-2.1,1.8-4.1,3.7-6.1,5.6c-1,1-1.9,2-2.8,3s-1.8,2.1-2.5,3.2
				c-0.4,0.6-0.7,1.1-0.9,1.7c-0.2,0.6-0.3,1.2-0.1,1.6c0.1,0.4,0.6,0.7,1.1,0.9c0.6,0.2,1.2,0.2,1.9,0.3c1.3,0,2.7-0.1,4-0.3
				c1.3-0.2,2.7-0.5,4-0.8c5.3-1.2,10.5-3,15.7-4.7c5.2-1.8,10.3-3.7,15.4-5.8l1.9-0.8l-0.2,2c-0.2,1.5-0.3,3.1-0.4,4.6
				c-0.1,1.5-0.1,3.1,0.1,4.5c0.1,0.7,0.2,1.4,0.5,2c0.1,0.3,0.3,0.5,0.4,0.6c0.1,0.1,0.2,0.2,0.3,0.2c0.2,0.1,0.8-0.1,1.3-0.4
				c0.6-0.3,1.1-0.7,1.7-1.2c2.2-1.9,4.2-4.4,6-6.9c0.9-1.3,1.8-2.5,2.7-3.8s1.7-2.6,2.5-3.9l1-1.6l1.3,1.4c2.4,2.6,4.9,5.1,7.5,7.5
				c1.3,1.2,2.6,2.3,4,3.4c1.4,1.1,2.8,2,4.3,2.8c1.5,0.7,3.1,1.3,4.4,1.1c0.7-0.1,1.2-0.3,1.7-0.7c0.5-0.4,0.9-1,1.2-1.7
				c0.6-1.4,0.8-3.1,0.9-4.8c0-0.8,0-1.7,0-2.6c0-0.9-0.1-1.7-0.2-2.5l-0.3-2.1l1.9,0.8c2.4,1,4.9,1.8,7.4,2.5
				c1.2,0.3,2.5,0.6,3.8,0.7c1.2,0.1,2.5,0.1,3.5-0.2s1.6-1,1.8-2s0-2.3-0.3-3.5s-0.8-2.4-1.4-3.6c-0.6-1.2-1.2-2.3-1.9-3.4
				l-0.5-0.8l0.8-0.5c2.2-1.4,4.3-2.9,6.4-4.4c1-0.8,2-1.6,3-2.4c0.5-0.4,0.9-0.9,1.3-1.3c0.4-0.5,0.8-1,0.9-1.4
				c0.1-0.2,0.1-0.4,0-0.4c0-0.1-0.1-0.2-0.4-0.3c-0.4-0.2-1.1-0.2-1.7-0.3c-1.2,0-2.5,0.1-3.8,0.3c-2.6,0.4-5.1,1-7.6,1.6l-0.9,0.2
				l0.2-0.9c0.8-3,1.5-6.1,1.8-9.2c0.1-1.5,0.2-3.1,0-4.6s-0.7-3-1.8-4s-2.6-1.3-4.1-1.1c-1.5,0.2-3,0.7-4.4,1.3
				c-2.8,1.2-5.5,2.9-8,4.8l-0.4,0.3l-0.3-0.5c-1.8-3-3.9-5.8-6.7-7.7c-1.4-1-2.9-1.7-4.5-2.1s-3.3-0.5-5-0.3
				c-3.3,0.4-6.5,1.8-9.4,3.7c-1.4,0.9-2.8,2-4.1,3.1c-0.6,0.6-1.3,1.1-1.9,1.7c-0.6,0.6-1.2,1.2-1.7,1.8l-0.6,0.7l-0.8-0.5
				c-2.4-1.4-4.8-2.8-7.3-4c-2.4-1.3-4.9-2.5-7.4-3.4c-0.6-0.2-1.3-0.4-1.9-0.6c-0.6-0.1-1.2-0.2-1.7-0.2c-0.2,0-0.4,0.1-0.4,0.1
				s0,0,0,0.1c0,0.3,0.1,0.9,0.3,1.5c0.5,1.2,1.1,2.3,1.9,3.4c0.7,1.1,1.6,2.2,2.4,3.3l2.3,2.9l-3.5-1.2c-2.5-0.8-5.1-1.6-7.6-2.1
				c-2.6-0.5-5.2-0.9-7.7-0.5c-1.2,0.2-2.4,0.6-3.2,1.3c-0.8,0.7-1.2,1.7-1.3,2.9c-0.1,1.2,0.1,2.4,0.5,3.7c0.2,0.6,0.4,1.2,0.6,1.8
				s0.5,1.2,0.8,1.7l0.6,1.2l-1.1,0.1c-1.2,0-2.4,0-3.6,0.1s-2.3,0.4-3.3,0.9s-1.7,1.3-1.8,2.3c-0.2,1,0.1,2.2,0.6,3.3
				c0.9,2.2,2.3,4.2,3.9,6c1.5,1.9,3.2,3.7,5,5.3l0.1,0.1L110.8,52.8z"/>
		</g>
	</g>
	<g>
		<g>
			<path class="st0" d="M28.8,48.9c-0.1,0.9,5.4,7.8,11,5.5c5.5-0.8,11.1-10.9,11.1-9.8c0-1.8-5.7,7.2-11.3,6.3
				c-5.6,0.7-11.3-8.4-11.2-10c0,1.1,5.6,10.3,11.3,9.8c5.6,1,11.3-7.7,11.3-6.6c0.1-1.6-5.3,4.9-10.6,3.1
				c-5.4-0.6-10.7-9.3-10.6-10.6c0.1,1.1,5.4,9.6,10.6,10.2c5.3,1.8,10.5-4.3,10.7-3.5c0.2-1.2-4.4,2-9-0.1c-4.6-1.2-9.2-7.7-9-8.5
				c0.2,0.7,4.7,6.9,9.2,8.2c4.5,2.1,9-0.7,9.2-0.4c0.2-0.8-3.3-0.9-6.7-3.4c-3.5-2.1-6.9-6.4-6.7-6.9c0.3,0.1,3.6,4.4,6.9,6.6
				c3.3,2.5,6.7,3.1,7,2.9c0.6-0.5-8.3-13.5-7.7-14.7c0.6-0.1,7.6,15,8.3,14c0.6-0.8-2.1-20.5-1.4-21.2c0.6-0.7,1.4,21.1,2,20.6
				c0.6-0.6,4.4-26.5,5-26.8c0.6-0.6-5.1,26.7-4.5,26.4c0.6-1,10.5-29.4,11-28.1c0.6-1.4-11,27.1-10.5,27.8
				c0.3,0.4,4.2-8.7,8.1-14.6c3.9-6.4,7.8-9.5,8-8.7c0.2-0.2-3.8,2.5-7.8,8.8c-4,5.7-8.1,15-7.9,14.5c0.2,1,5.1-9,10-12.6
				c4.9-4.6,9.8-2.8,10-1.4c0.2-0.5-4.8-2.8-9.8,1.6c-5,3.3-10,13.5-9.9,12.6c0.1,1.5,5.6-8.6,11.1-9.6c5.5-2.5,11,4,11,5.8
				c0.1-0.9-5.4-7.8-11-5.5c-5.5,0.8-11.1,10.9-11,9.8c0,1.8,5.7-7.2,11.3-6.3c5.6-0.7,11.3,8.3,11.2,10c0-1.1-5.6-10.3-11.3-9.8
				c-5.6-1-11.3,7.7-11.3,6.6c-0.1,1.6,5.3-4.9,10.6-3.1c5.3,0.4,10.6,9.1,10.5,10.4c-0.1-1.1-5.4-9.6-10.6-10.2
				c-5.3-1.8-10.5,4.3-10.7,3.5c-0.1,1.2,4.4-2,9,0.1c4.6,1.2,9.2,7.7,9,8.5c-0.2-0.7-4.7-6.9-9.2-8.2c-4.5-2.1-9,0.7-9.2,0.4
				c-0.2,0.8,3.3,0.9,6.7,3.4c3.5,2.1,6.9,6.4,6.7,6.9c-0.2-0.1-3.6-4.4-6.9-6.6c-3.3-2.5-6.7-3.1-7-2.9c-0.5,0.5,8.3,13.5,7.7,14.7
				c-0.6,0.1-7.6-15-8.3-14c-0.6,0.7,2.1,20.5,1.5,21.2s-1.4-21.1-2-20.6c-0.6,0.6-4.4,26.5-5,26.8c-0.6,0.5,5-26.7,4.5-26.4
				c-0.6,1-10.5,29.4-11,28c-0.6,1.4,11-27.1,10.5-27.8c-0.3-0.4-4.2,8.7-8.1,14.6c-3.9,6.4-7.8,9.5-8,8.7c-0.2,0.2,3.8-2.5,7.8-8.8
				c4-5.7,8.1-15,7.9-14.5c-0.2-1-5.1,9-10,12.6c-4.9,4.6-9.8,2.8-10,1.4c-0.2,0.5,4.8,2.8,9.8-1.6c5-3.3,10-13.5,9.9-12.6
				c-0.1-1.5-5.6,8.6-11.1,9.6C34.4,57.2,28.9,50.6,28.8,48.9z"/>
		</g>
		<path class="st1" d="M273.2,16.2c0.1,0,0.1,0,0.2,0c0.6,0,1.2,0,1.8,0c0.7,0,1.3,0.1,2,0.2s1.3,0.1,2,0.2c1.2,0.2,2.4,0.4,3.5,0.7
			c0.6,0.2,1.2,0.3,1.8,0.5c0.1,0,0.2,0.1,0.2,0.3c-0.1,0.6-0.2,1.3-0.3,1.9c-0.1,0.7-0.2,1.4-0.3,2.1c-0.1,0.7-0.2,1.4-0.3,2.1
			c0,0.2-0.1,0.4-0.1,0.7c-0.1-0.1-0.2-0.1-0.2-0.2c-0.9-0.7-2-1.2-3-1.5c-1.4-0.5-2.7-0.8-4.2-1c-0.7-0.1-1.3-0.2-2-0.2
			c-1.6-0.2-3.2-0.2-4.8-0.2c-0.8,0-1.5,0.1-2.2,0.1c-3.5,0.3-6.9,1.1-10.2,2.3c-2.2,0.8-4.3,1.7-6.4,2.7c-1.3,0.6-2.6,1.3-3.9,2
			c-1.7,0.9-3.3,2.1-4.8,3.3c-2.7,2.3-5,5-6.7,8.1c-1,1.8-1.8,3.7-2.4,5.7c-0.1,0.5-0.2,1-0.3,1.5c-0.1,0.8-0.2,1.7-0.2,2.5
			c0,2.1,0.5,4.1,1.2,6c0.9,2.2,2.1,4.1,3.5,5.9c1.9,2.4,4.3,4.2,7,5.6c2.3,1.2,4.8,2.1,7.3,2.6c1.1,0.2,2.1,0.4,3.2,0.6
			c0.6,0.1,1.3,0.1,2,0.2c1.3,0.1,2.6,0.1,3.9,0.1c0.6,0,1.3-0.1,1.9-0.1s1.1-0.1,1.7-0.2c0.7-0.1,1.4-0.2,2.2-0.3
			c1.4-0.2,2.8-0.6,4.2-1c3.9-1.1,7.5-2.9,10.7-5.4c2.5-1.9,4.7-4.2,6.4-6.9c1.4-2.1,2.4-4.4,2.9-6.9c0.2-0.9,0.3-1.8,0.3-2.7
			c0.1-2.8-0.6-5.3-1.9-7.7c-0.8-1.5-1.7-2.8-2.9-4c-1.6-1.7-3.4-2.9-5.5-3.8c-1.5-0.7-3.1-1.1-4.8-1.4c-0.7-0.1-1.4-0.2-2.1-0.3
			c-0.1,0-0.1,0-0.2,0c-0.3,0-0.3,0-0.3-0.3c0-1.7,0-3.5,0-5.2c0-0.2,0-0.2,0.2-0.2c0.8,0.1,1.5,0.2,2.3,0.4
			c1.7,0.3,3.4,0.9,4.9,1.6c2.7,1.2,5.1,2.9,7.2,5.1c1.8,1.9,3.2,4.1,4.1,6.5c0.6,1.5,1,3,1.2,4.5c0.1,0.6,0.2,1.3,0.2,1.9
			c0,0.9,0.1,1.7,0.1,2.6c0,0.7-0.1,1.4-0.2,2.1c-0.2,1.8-0.6,3.5-1.2,5.1c-1,2.9-2.5,5.6-4.5,7.9c-2.1,2.5-4.5,4.5-7.3,6.2
			c-2.7,1.7-5.7,2.9-8.7,4c-1.8,0.6-3.6,1.1-5.4,1.4c-0.8,0.1-1.7,0.3-2.5,0.4c-1.1,0.1-2.3,0.2-3.4,0.2c-0.9,0-1.9,0-2.8,0
			c-0.8,0-1.7-0.1-2.5-0.2c-3.5-0.4-6.9-1.2-10.2-2.6c-2.1-0.9-4-2.1-5.8-3.6c-1.9-1.6-3.5-3.3-4.8-5.4c-1.6-2.5-2.8-5.2-3.4-8.1
			c-0.2-1-0.3-1.9-0.4-2.9c-0.1-0.7-0.1-1.5-0.1-2.2c0-0.1,0-0.2,0-0.2c0-0.1,0-0.2,0-0.4c0-0.1,0-0.1,0-0.2c0-0.7,0-1.4,0.1-2
			c0.1-0.8,0.2-1.6,0.3-2.4c0.4-2.3,1.2-4.6,2.3-6.7c1.1-2.3,2.6-4.4,4.3-6.2c1.3-1.4,2.7-2.6,4.1-3.8c3.5-2.8,7.3-5.2,11.4-7.1
			s8.3-3.1,12.8-3.7c1.2-0.2,2.4-0.3,3.6-0.4c0.9-0.1,1.7-0.1,2.6-0.1c0.4,0,0.8,0,1.3,0C273,16.3,273,16.3,273.2,16.2
			C273.1,16.2,273.2,16.2,273.2,16.2z"/>
		<path class="st2" d="M293.6,16.2c0.1,0,0.1,0,0.2,0c0.6,0,1.2,0,1.8,0c0.7,0,1.3,0.1,2,0.2s1.3,0.1,2,0.2c1.2,0.2,2.4,0.4,3.5,0.7
			c0.6,0.2,1.2,0.3,1.8,0.5c0.1,0,0.2,0.1,0.2,0.3c-0.1,0.6-0.2,1.3-0.3,1.9c-0.1,0.7-0.2,1.4-0.3,2.1c-0.1,0.7-0.2,1.4-0.3,2.1
			c0,0.2-0.1,0.4-0.1,0.7c-0.1-0.1-0.2-0.1-0.2-0.2c-0.9-0.7-2-1.2-3-1.5c-1.4-0.5-2.7-0.8-4.2-1c-0.7-0.1-1.3-0.2-2-0.2
			c-1.6-0.2-3.2-0.2-4.8-0.2c-0.8,0-1.5,0.1-2.3,0.1c-3.5,0.3-6.9,1.1-10.2,2.3c-2.2,0.8-4.3,1.7-6.4,2.7c-1.3,0.6-2.6,1.3-3.9,2
			c-1.7,0.9-3.3,2.1-4.8,3.3c-2.7,2.3-5,5-6.7,8.1c-1,1.8-1.8,3.7-2.4,5.7c-0.1,0.5-0.2,1-0.3,1.5c-0.1,0.8-0.2,1.7-0.2,2.5
			c0,2.1,0.5,4.1,1.2,6c0.9,2.2,2.1,4.1,3.5,5.9c1.9,2.4,4.3,4.2,7,5.6c2.3,1.2,4.8,2.1,7.3,2.6c1.1,0.2,2.1,0.4,3.2,0.6
			c0.6,0.1,1.3,0.1,2,0.2c1.3,0.1,2.6,0.1,3.9,0.1c0.6,0,1.3-0.1,1.9-0.1s1.1-0.1,1.7-0.2c0.7-0.1,1.4-0.2,2.2-0.3
			c1.4-0.2,2.8-0.6,4.2-1c3.9-1.1,7.5-2.9,10.7-5.4c2.5-1.9,4.7-4.2,6.4-6.9c1.4-2.1,2.4-4.4,2.9-6.9c0.2-0.9,0.3-1.8,0.3-2.7
			c0.1-2.8-0.6-5.3-1.9-7.7c-0.8-1.5-1.7-2.8-2.9-4c-1.6-1.7-3.4-2.9-5.5-3.8c-1.5-0.7-3.1-1.1-4.8-1.4c-0.7-0.1-1.4-0.2-2.1-0.3
			c-0.1,0-0.1,0-0.2,0c-0.3,0-0.3,0-0.3-0.3c0-1.7,0-3.5,0-5.2c0-0.2,0-0.2,0.2-0.2c0.8,0.1,1.5,0.2,2.3,0.4
			c1.7,0.3,3.4,0.9,4.9,1.6c2.7,1.2,5.1,2.9,7.2,5.1c1.8,1.9,3.2,4.1,4.1,6.5c0.6,1.5,1,3,1.2,4.5c0.1,0.6,0.2,1.3,0.2,1.9
			c0,0.9,0.1,1.7,0.1,2.6c0,0.7-0.1,1.4-0.2,2.1c-0.2,1.8-0.6,3.5-1.2,5.1c-1,2.9-2.5,5.6-4.5,7.9c-2.1,2.5-4.5,4.5-7.3,6.2
			c-2.7,1.7-5.7,2.9-8.7,4c-1.8,0.6-3.6,1.1-5.4,1.4c-0.8,0.1-1.7,0.3-2.5,0.4c-1.1,0.1-2.3,0.2-3.4,0.2c-0.9,0-1.9,0-2.8,0
			c-0.8,0-1.7-0.1-2.5-0.2c-3.5-0.4-6.9-1.2-10.2-2.6c-2.1-0.9-4-2.1-5.7-3.6c-1.9-1.6-3.5-3.3-4.8-5.4c-1.6-2.5-2.8-5.2-3.4-8.1
			c-0.2-1-0.3-1.9-0.4-2.9c-0.1-0.7-0.1-1.5-0.1-2.2c0-0.1,0-0.2,0-0.2c0-0.1,0-0.2,0-0.4c0-0.1,0-0.1,0-0.2c0-0.7,0-1.4,0.1-2
			c0.1-0.8,0.2-1.6,0.3-2.4c0.4-2.3,1.2-4.6,2.3-6.7c1.1-2.3,2.6-4.4,4.3-6.2c1.3-1.4,2.7-2.6,4.1-3.8c3.5-2.8,7.3-5.2,11.4-7.1
			s8.3-3.1,12.8-3.7c1.2-0.2,2.4-0.3,3.6-0.4c0.9-0.1,1.7-0.1,2.6-0.1c0.4,0,0.8,0,1.3,0C293.4,16.3,293.4,16.3,293.6,16.2
			C293.5,16.2,293.5,16.2,293.6,16.2z"/>
		<path d="M315.4,16.2c0.1,0,0.1,0,0.2,0c0.6,0,1.2,0,1.8,0c0.7,0,1.3,0.1,2,0.2s1.3,0.1,2,0.2c1.2,0.2,2.4,0.4,3.5,0.7
			c0.6,0.2,1.2,0.3,1.8,0.5c0.1,0,0.2,0.1,0.2,0.3c-0.1,0.6-0.2,1.3-0.3,1.9c-0.1,0.7-0.2,1.4-0.3,2.1c-0.1,0.7-0.2,1.4-0.3,2.1
			c0,0.2-0.1,0.4-0.1,0.7c-0.1-0.1-0.2-0.1-0.2-0.2c-0.9-0.7-2-1.2-3-1.5c-1.4-0.5-2.7-0.8-4.2-1c-0.7-0.1-1.3-0.2-2-0.2
			c-1.6-0.2-3.2-0.2-4.8-0.2c-0.8,0-1.5,0.1-2.3,0.1c-3.5,0.3-6.9,1.1-10.2,2.3c-2.2,0.8-4.3,1.7-6.4,2.7c-1.3,0.6-2.6,1.3-3.9,2
			c-1.7,0.9-3.3,2.1-4.8,3.3c-2.7,2.3-5,5-6.7,8.1c-1,1.8-1.8,3.7-2.4,5.7c-0.1,0.5-0.2,1-0.3,1.5c-0.1,0.8-0.2,1.7-0.2,2.5
			c0,2.1,0.5,4.1,1.2,6c0.9,2.2,2.1,4.1,3.5,5.9c1.9,2.4,4.3,4.2,7,5.6c2.3,1.2,4.8,2.1,7.3,2.6c1.1,0.2,2.1,0.4,3.2,0.6
			c0.6,0.1,1.3,0.1,2,0.2c1.3,0.1,2.6,0.1,3.9,0.1c0.6,0,1.3-0.1,1.9-0.1s1.1-0.1,1.7-0.2c0.7-0.1,1.4-0.2,2.2-0.3
			c1.4-0.2,2.8-0.6,4.2-1c3.9-1.1,7.5-2.9,10.7-5.4c2.5-1.9,4.7-4.2,6.4-6.9c1.4-2.1,2.4-4.4,2.9-6.9c0.2-0.9,0.3-1.8,0.3-2.7
			c0.1-2.8-0.6-5.3-1.9-7.7c-0.8-1.5-1.7-2.8-2.9-4c-1.6-1.7-3.4-2.9-5.5-3.8c-1.5-0.7-3.1-1.1-4.8-1.4c-0.7-0.1-1.4-0.2-2.1-0.3
			c-0.1,0-0.1,0-0.2,0c-0.3,0-0.3,0-0.3-0.3c0-1.7,0-3.5,0-5.2c0-0.2,0-0.2,0.2-0.2c0.8,0.1,1.5,0.2,2.3,0.4
			c1.7,0.3,3.4,0.9,4.9,1.6c2.7,1.2,5.1,2.9,7.2,5.1c1.8,1.9,3.2,4.1,4.1,6.5c0.6,1.5,1,3,1.2,4.5c0.1,0.6,0.2,1.3,0.2,1.9
			c0,0.9,0.1,1.7,0.1,2.6c0,0.7-0.1,1.4-0.2,2.1c-0.2,1.8-0.6,3.5-1.2,5.1c-1,2.9-2.5,5.6-4.5,7.9c-2.1,2.5-4.5,4.5-7.3,6.2
			c-2.7,1.7-5.7,2.9-8.7,4c-1.8,0.6-3.6,1.1-5.4,1.4c-0.8,0.1-1.7,0.3-2.5,0.4c-1.1,0.1-2.3,0.2-3.4,0.2c-0.9,0-1.9,0-2.8,0
			c-0.8,0-1.7-0.1-2.5-0.2c-3.5-0.4-6.9-1.2-10.2-2.6c-2.1-0.9-4-2.1-5.7-3.6c-1.9-1.6-3.5-3.3-4.8-5.4c-1.6-2.5-2.8-5.2-3.4-8.1
			c-0.2-1-0.3-1.9-0.4-2.9c-0.1-0.7-0.1-1.5-0.1-2.2c0-0.1,0-0.2,0-0.2c0-0.1,0-0.2,0-0.4c0-0.1,0-0.1,0-0.2c0-0.7,0-1.4,0.1-2
			c0.1-0.8,0.2-1.6,0.3-2.4c0.4-2.3,1.2-4.6,2.3-6.7c1.1-2.3,2.6-4.4,4.3-6.2c1.3-1.4,2.7-2.6,4.1-3.8c3.5-2.8,7.3-5.2,11.4-7.1
			s8.3-3.1,12.8-3.7c1.2-0.2,2.4-0.3,3.6-0.4c0.9-0.1,1.7-0.1,2.6-0.1c0.4,0,0.8,0,1.3,0C315.2,16.3,315.2,16.3,315.4,16.2
			C315.3,16.2,315.3,16.2,315.4,16.2z"/>
		<g>
			<path d="M366.6,77.1c5.4-14.5,0.1-14.5-10.3,0c10.4-14.5,16-45.4,10.8-59.9c5.2,14.5,11.4,14.5,12.1,0
				c5.5,14.5,9.8,19.5,20.2,23.4C388.9,53.4,380.3,62.6,366.6,77.1z M396.6,42.2c-9.2-4.7-13.3-10.1-19.4-24.3
				c0.2,14.2-4,14.2-8.1,0c4.1,14.2-1.3,44.4-10.5,58.6c9.2-14.2,13.4-14.2,8.1,0C379.4,62.3,387.5,53.5,396.6,42.2z"/>
			<path d="M393.7,77.1c7.9-14.5,13.5-45.4,10.8-59.9c2.7,14.5,14,14.5,21.9,0c-7.9,14.5-7.9,15.2,0,1.3c-7.9,13.9-18.2,13.9-19.9,0
				c1.7,13.9-0.9,28.3-5.1,28c4.2,0.4,12,0.4,15.2,0c-3.2,0.4-3.3,1-0.2,1.3c-3.1-0.3-10.9-0.3-15.2,0c4.3-0.3,1.7,14.2-5.1,28.1
				c6.7-13.9,18.9-13.9,23.7,0c-4.7-13.9-4.7-13.3,0,1.3C415.1,62.6,401.6,62.6,393.7,77.1z"/>
			<path d="M446.5,58.1c-6-0.3-10.2,4.7-16.7,19.3c-0.7-14.7-2.7-16.7-10.6-9.6c7.3-10,7.8-13.1,1.1-6.1c6.7-7,6.9-7,0.4,0
				c5.8-2.9,8,0.1,9.4,13.8c5.8-13.7,9.4-17.8,14.4-16.3c-5-8.9-7.3-10.2-9.5-12c-3-1.8-5.5-3.4-9.7-12.8c4.2,1.5,8.2-2.9,15.2-17.5
				c-1.2,14.7,0.4,15.8,8.5,5.5c-7.3,12-7.6,14-0.7,4c-7.4,7.8-8.9,6-8-7.8c-6.5,13.8-9.7,17.6-13.1,14.8c3.4,9.4,5.5,10.6,8.4,10.7
				C437.9,47.7,440.6,49.3,446.5,58.1z"/>
			<path d="M458.5,17.2c-2,14.5-0.8,14.5,2.4,0c-3.2,14.5-8.8,45.4-10.9,59.9c2.1-14.5,0.9-14.5-2.3,0
				C450.9,62.6,456.4,31.7,458.5,17.2z"/>
			<path d="M487.7,17.6c-11.6,14.2-18.1,22.1-27.1,34.9c9,4,12.8,9.3,18.6,23.2c1.5-14,3.3-14.4,9.4-2.4
				c-4.6-12.8-3.3-20.1,2.5-14.1c-5.5-7.1-6.2-8-2.5-3.9c-4.6-4.1-5.1-4.1-1,0c-4.1-4.1-4.1-4.4,0.1-0.6c-4.2-3.8-0.9-3.8,6.4,0
				c-7.3-3.8-9.4,8-4.1,23c-5.3-14.9-5.4-16.8-0.2-3.6c-7.1-12.2-9.1-11.5-11.7,3.2c-5.4-14.7-9.8-19.4-20.1-22.9
				C468.2,40,475.9,31,489.1,16.1c-2.5,14.9-1,15.4,11.2,3.6c-10.2,13.2-10.5,14.8-0.4,3.1C488,32.7,485.8,31.8,487.7,17.6z"/>
			<path d="M529.9,77.1c-6.4-14.5-19.7-43.2-25.9-55.7c6.2,12.5,1.1,41.2-10,55.7c11-14.5,10.5-14.5-1,0
				c11.5-14.5,17.1-45.4,10.7-59.9c6.3,14.5,6.8,14.5,0.9,0c5.9,14.5,18.9,42.2,25.3,53.7c-6.4-11.5-1.4-39.2,9.6-53.7
				c-11,14.5-10.5,14.5,1,0C529,31.7,523.5,62.6,529.9,77.1z"/>
			<path d="M544.4,77.1c5.4-14.5,0.1-14.5-10.3,0c10.4-14.5,16-45.4,10.8-59.9c5.2,14.5,11.4,14.5,12.1,0
				c5.5,14.5,9.8,19.5,20.2,23.4C566.8,53.4,558.2,62.6,544.4,77.1z M574.5,42.2c-9.2-4.7-13.3-10.1-19.4-24.3
				c0.2,14.2-4,14.2-8.1,0c4.1,14.2-1.3,44.4-10.5,58.6c9.2-14.2,13.4-14.2,8.1,0C557.2,62.3,565.3,53.5,574.5,42.2z"/>
			<path d="M571.6,77.1c7.9-14.5,13.5-45.4,10.8-59.9c2.7,14.5,14,14.5,21.9,0c-7.9,14.5-7.9,15.2,0,1.3c-7.9,13.9-18.2,13.9-19.9,0
				c1.7,13.9-0.9,28.3-5.1,28c4.2,0.4,12,0.4,15.2,0c-3.2,0.4-3.3,1-0.2,1.3c-3.1-0.3-10.9-0.3-15.2,0c4.3-0.3,1.7,14.2-5.1,28.1
				c6.7-13.9,18.9-13.9,23.7,0c-4.7-13.9-4.7-13.3,0,1.3C592.9,62.6,579.5,62.6,571.6,77.1z"/>
			<path d="M609.1,17.1c1.8,14.5,6.2,14.6,8.4,0.1c0.8,14.5,2.8,17.1,9.9,11.9c-7.1,13.5-10.9,18-15.3,18.1c-0.7,0-1.7-0.3-6-0.6
				c3.3,0.3,5.5,0.3,4.4,0c4.9,0.4,8.7-4.1,14.7-17.4c-6,5.4-8,2.9-9.5-11.3c-1.4,14.2-3.7,14.2-4.5,0c0.8,14.2-4.7,44.7-10.6,59.3
				c6-14.5,4.8-14.5-2.2,0C605.3,62.6,610.9,31.7,609.1,17.1z"/>
			<path d="M662.2,18.5c-8.7,13.9-17.3,13.9-16.7,0c-0.5,13.9-6,44.1-10.6,58.6c4.6-14.5,3.4-14.5-2.2,0
				c5.7-14.5,11.1-44.7,10.6-58.6c0.5,13.9-8.1,13.9-16.7,0c8.7,13.9,8.7,13.3,0-1.3c8.7,14.5,27.1,14.5,35.7,0
				C653.5,31.7,653.5,32.4,662.2,18.5z"/>
		</g>
		<g>
			<path class="st3" d="M704.9,24c7.8,0,7.8,4.4,15.7,4.4c7.8,0,7.8-4.4,15.7-4.4c7.8,0,7.8,4.4,15.7,4.4c7.8,0,7.8-4.4,15.7-4.4"/>
		</g>
		<g>
			<path class="st3" d="M704.9,31.8c7.8,0,7.8,4.4,15.7,4.4c7.8,0,7.8-4.4,15.7-4.4c7.8,0,7.8,4.4,15.7,4.4c7.8,0,7.8-4.4,15.7-4.4"
				/>
		</g>
		<g>
			<path class="st3" d="M704.9,39.7c7.8,0,7.8,4.4,15.7,4.4c7.8,0,7.8-4.4,15.7-4.4c7.8,0,7.8,4.4,15.7,4.4c7.8,0,7.8-4.4,15.7-4.4"
				/>
		</g>
		<g>
			<path class="st3" d="M704.9,47.5c7.8,0,7.8,4.4,15.7,4.4c7.8,0,7.8-4.4,15.7-4.4c7.8,0,7.8,4.4,15.7,4.4c7.8,0,7.8-4.4,15.7-4.4"
				/>
		</g>
		<g>
			<path class="st3" d="M704.9,55.3c7.8,0,7.8,4.4,15.7,4.4c7.8,0,7.8-4.4,15.7-4.4c7.8,0,7.8,4.4,15.7,4.4c7.8,0,7.8-4.4,15.7-4.4"
				/>
		</g>
		<g>
			<path class="st3" d="M704.9,63.2c7.8,0,7.8,4.4,15.7,4.4c7.8,0,7.8-4.4,15.7-4.4c7.8,0,7.8,4.4,15.7,4.4c7.8,0,7.8-4.4,15.7-4.4"
				/>
		</g>
		<rect x="691.1" y="15.8" class="st4" width="89" height="59.3"/>
		<g>
			<g>
				<path d="M836.5,21.9c-4.8-7.7-12,1-15.5,5.6c-5.1,6.8-15,13.8-15.5,23c-0.3,5.7,2.6,9.8,5.6,14.4c2.3,3.5,3.1,8.3,6.6,11
					c3.1,2.3,8.3,0.4,11.2-0.9c2.5-1.1,4.6-3,6.7-4.7c1.7-1.4,6.5-7.7,9-6.8c0.7,0.2,0.9-0.8,0.3-1c-2.4-0.8-3.4,0.9-5,2.5
					c-4,4.1-8.7,8.3-14.2,10.2c-5.9,2.1-8.9-0.9-11.1-5.8c-1.8-3.9-4.3-7.3-6.4-11c-5.3-9.7,3.1-18.2,9.3-24.7
					c3.6-3.8,12.7-19.5,18-11.1C835.9,23,836.9,22.5,836.5,21.9L836.5,21.9z"/>
			</g>
		</g>
		<g>
			<g>
				<path d="M857.5,22.1c-8.2,1.7-14.9,6.9-21,12.4c-4.7,4.3-10.5,8.8-10.9,15.6c0,0.3,0.3,0.5,0.5,0.5c6.1,0.6,11.1-3.6,15.8-6.9
					c4.6-3.2,16.5-9.7,17,0.4c0.3,5.8-2.9,12.1-5.4,17.2c-2,4.2-4.3,8.5-7.1,12.3c-0.4,0.6,0.5,1.1,0.9,0.5
					c4.4-6.1,7.9-13.2,10.5-20.2c1.7-4.5,4.6-13.4-1.5-16c-8.6-3.7-18.1,8.1-25.3,10.9c-1.3,0.5-2.6,0.7-4,0.7s1.2-5.2,1.5-5.6
					c1.8-2.8,4.9-5.2,7.3-7.5c6.1-6,13.2-11.6,21.8-13.4C858.4,23,858.2,22,857.5,22.1L857.5,22.1z"/>
			</g>
		</g>
		<polygon class="st5" points="916.2,12 917.5,15.9 921.6,15.9 918.3,18.4 919.6,22.3 916.2,19.9 912.9,22.3 914.2,18.4 910.8,15.9 
			915,15.9 		"/>
		<polygon class="st6" points="931.4,16.3 932.6,20.2 936.8,20.2 933.4,22.6 934.7,26.5 931.4,24.1 928,26.5 929.3,22.6 926,20.2 
			930.1,20.2 		"/>
		<polygon class="st7" points="942.7,27.4 943.9,31.3 948.1,31.3 944.7,33.8 946,37.7 942.7,35.2 939.3,37.7 940.6,33.8 937.3,31.3 
			941.4,31.3 		"/>
		<polygon class="st8" points="946.9,42.7 948.2,46.6 952.3,46.6 948.9,49 950.2,52.9 946.9,50.5 943.6,52.9 944.8,49 941.5,46.6 
			945.6,46.6 		"/>
		<polygon class="st9" points="942.7,58.3 943.9,62.2 948.1,62.2 944.7,64.6 946,68.6 942.7,66.1 939.3,68.6 940.6,64.6 937.3,62.2 
			941.4,62.2 		"/>
		<polygon class="st10" points="931.4,69.6 932.6,73.5 936.8,73.5 933.4,75.9 934.7,79.8 931.4,77.4 928,79.8 929.3,75.9 926,73.5 
			930.1,73.5 		"/>
		<polygon class="st11" points="916.1,73.6 917.4,77.5 921.5,77.5 918.2,79.9 919.4,83.8 916.1,81.4 912.8,83.8 914.1,79.9 
			910.7,77.5 914.8,77.5 		"/>
		<polygon class="st12" points="900.7,69.6 902,73.5 906.1,73.5 902.8,75.9 904.1,79.8 900.7,77.4 897.4,79.8 898.7,75.9 
			895.3,73.5 899.5,73.5 		"/>
		<polygon class="st13" points="889.6,58.4 890.8,62.4 895,62.4 891.6,64.8 892.9,68.7 889.6,66.3 886.2,68.7 887.5,64.8 
			884.2,62.4 888.3,62.4 		"/>
		<polygon class="st14" points="885.5,42.8 886.7,46.7 890.9,46.7 887.5,49.1 888.8,53.1 885.5,50.6 882.1,53.1 883.4,49.1 
			880.1,46.7 884.2,46.7 		"/>
		<polygon class="st15" points="889.4,27.5 890.7,31.5 894.8,31.5 891.5,33.9 892.8,37.8 889.4,35.4 886.1,37.8 887.4,33.9 
			884.1,31.5 888.2,31.5 		"/>
		<polygon class="st5" points="900.5,16.3 901.8,20.2 905.9,20.2 902.5,22.6 903.8,26.5 900.5,24.1 897.2,26.5 898.4,22.6 
			895.1,20.2 899.2,20.2 		"/>
		<path class="st16" d="M1017.6,18c-41.1,129.8-45.7,0-45.7,0S999.3,58.6,1017.6,18z"/>
		<polygon class="st17" points="1122.9,59.7 1122.9,68.9 1095.3,68.9 1095.3,59.7 1104.5,59.7 1104.5,50.5 1086.1,50.5 1086.1,78.1 
			1076.9,78.1 1076.9,50.5 1058.5,50.5 1058.5,59.7 1067.7,59.7 1067.7,68.9 1040.1,68.9 1040.1,59.7 1049.3,59.7 1049.3,50.5 
			1030.9,50.5 1030.9,41.3 1049.3,41.3 1049.3,32.1 1040.1,32.1 1040.1,22.9 1067.7,22.9 1067.7,32.1 1058.5,32.1 1058.5,41.3 
			1076.9,41.3 1076.9,13.7 1086.1,13.7 1086.1,41.3 1104.5,41.3 1104.5,32.1 1095.3,32.1 1095.3,22.9 1122.9,22.9 1122.9,32.1 
			1113.7,32.1 1113.7,41.3 1132,41.3 1132,50.5 1113.7,50.5 1113.7,59.7 		"/>
		<path d="M1243.5,10.4c-0.9,1.7-1.5,3.7-2.8,5c-8.4,8.1-17,16.2-25.6,24.1c-3.1,2.9-6.6,5.4-10.9,8.9c2.5,0,3.8,0.1,5,0
			c5.3-0.3,10.6-0.9,15.8-0.9c4.2,0,7.4-1.1,9.5-4.9c0.4-0.8,1.4-1.3,2.4-2c1.7,7.5-5.4,16.5-13.2,17.1c-3.8,0.3-7.6,0-11.4,0
			c-6.9,0-13.8,0-20.8-0.1c-1.1,0-2.2-0.5-3.3-0.8c0.7-0.8,1.3-1.8,2.1-2.4c9.6-7,19.2-13.9,28.7-20.9c1.2-0.9,2.2-2.2,4-4.2
			c-9.4,3.3-19.4-0.4-26.8,8.4c1.7-8.6,9.2-15.8,17.1-17.3c5.9-1.2,12-2.1,17.9-3.5c2.1-0.5,3.9-2.2,5.8-3.5
			c1.8-1.3,3.4-2.7,5.1-4.1C1242.6,9.6,1243,10,1243.5,10.4z"/>
		<path d="M1141.9,69.7c7.7-6.9,15.5-13.8,23.2-20.7c-0.2-0.3-0.4-0.7-0.6-1c-5.6,0.6-11.8-1.9-16.7,4.4c1.4-8.3,5.8-12.6,13.1-13.5
			c3.2-0.4,6.5-0.6,9.7-1.2c1.7-0.4,3.3-1.5,4.9-2.4c1.2-0.7,2.4-1.6,4.1-1.8c-7.1,10.9-16.5,19.6-26.7,29.6c4.9,0,8.8-0.3,12.5,0.1
			c4.6,0.5,7.3-1.7,9.4-5.9c1.6,6.8-2.7,13.2-9.4,13.7c-7.6,0.5-15.3,0.1-23,0.1C1142.1,70.6,1142,70.2,1141.9,69.7z"/>
		<path d="M1176.6,44.1c4.7-4.2,9.5-8.5,14.2-12.7c-0.1-0.2-0.3-0.4-0.4-0.6c-3.5,0.3-7.3-1.1-10.3,2.7c0.9-5.1,3.5-7.7,8-8.3
			c2-0.3,4-0.3,6-0.8c1.1-0.2,2-0.9,3-1.5c0.8-0.4,1.5-1,2.5-1.1c-4.4,6.7-10.2,12-16.4,18.2c3,0,5.4-0.2,7.7,0
			c2.8,0.3,4.5-1.1,5.7-3.6c1,4.2-1.7,8.1-5.8,8.4c-4.7,0.3-9.4,0.1-14.1,0.1C1176.8,44.6,1176.7,44.4,1176.6,44.1z"/>
	</g>
</g>
</svg>
