<?xml version="1.0" encoding="utf-8"?>
<!-- Generator: Adobe Illustrator 19.2.1, SVG Export Plug-In . SVG Version: 6.00 Build 0)  -->
<svg version="1.1" id="Layer_1" xmlns="http://www.w3.org/2000/svg" xmlns:xlink="http://www.w3.org/1999/xlink" x="0px" y="0px"
	 viewBox="0 0 1271.9 93" style="enable-background:new 0 0 1271.9 93;" xml:space="preserve">
<style type="text/css">
	.st0{fill:none;stroke:#231F20;stroke-width:0.3769;stroke-miterlimit:10;}
	.st1{fill:url(#SVGID_1_);}
	.st2{opacity:0.2;enable-background:new    ;}
	.st3{opacity:0.6;enable-background:new    ;}
	.st4{fill:none;stroke:#000000;stroke-width:3.3348;stroke-miterlimit:10;}
	.st5{fill:none;stroke:#231F20;stroke-width:0.6782;stroke-miterlimit:10;}
	.st6{fill:#000102;}
	.st7{opacity:0.9;fill:#000102;}
	.st8{opacity:0.8;fill:#000102;}
	.st9{opacity:0.7;fill:#000102;}
	.st10{opacity:0.6;fill:#000102;}
	.st11{opacity:0.5;fill:#000102;}
	.st12{opacity:0.41;fill:#000102;}
	.st13{opacity:0.31;fill:#000102;}
	.st14{opacity:0.2;fill:#000102;}
	.st15{opacity:0.1;fill:#000102;}
	.st16{opacity:0;fill:#000102;}
	.st17{fill:#231F20;}
	.st18{fill:none;stroke:#231F20;stroke-width:0.9195;stroke-miterlimit:10;}
</style>
<g>
	<g>
		<path class="st0" d="M17.6,48c-0.1,0.9,5.4,7.8,11,5.5c5.5-0.8,11.1-10.9,11.1-9.8c0-1.8-5.7,7.2-11.3,6.3
			c-5.6,0.7-11.3-8.4-11.2-10c0,1.1,5.6,10.3,11.3,9.8c5.6,1,11.3-7.7,11.3-6.6c0.1-1.6-5.3,4.9-10.6,3.1
			c-5.4-0.6-10.7-9.3-10.6-10.6c0.1,1.1,5.4,9.6,10.6,10.2c5.3,1.8,10.5-4.3,10.7-3.5c0.2-1.2-4.4,2-9-0.1c-4.6-1.2-9.2-7.7-9-8.5
			c0.2,0.7,4.7,6.9,9.2,8.2c4.5,2.1,9-0.7,9.2-0.4c0.2-0.8-3.3-0.9-6.7-3.4c-3.5-2.1-6.9-6.4-6.7-6.9c0.3,0.1,3.6,4.4,6.9,6.6
			c3.3,2.5,6.7,3.1,7,2.9c0.6-0.5-8.3-13.5-7.7-14.7c0.6-0.1,7.6,15,8.3,14c0.6-0.8-2.1-20.5-1.4-21.2c0.6-0.7,1.4,21.1,2,20.6
			c0.6-0.6,4.4-26.5,5-26.8c0.6-0.6-5.1,26.7-4.5,26.4c0.6-1,10.5-29.4,11-28.1C54.1,9.5,42.5,38,43,38.7c0.3,0.4,4.2-8.7,8.1-14.6
			c3.9-6.4,7.8-9.5,8-8.7c0.2-0.2-3.8,2.5-7.8,8.8c-4,5.7-8.1,15-7.9,14.5c0.2,1,5.1-9,10-12.6c4.9-4.6,9.8-2.8,10-1.4
			c0.2-0.5-4.8-2.8-9.8,1.6c-5,3.3-10,13.5-9.9,12.6c0.1,1.5,5.6-8.6,11.1-9.6c5.5-2.5,11,4,11,5.8c0.1-0.9-5.4-7.8-11-5.5
			c-5.5,0.8-11.1,10.9-11,9.8c0,1.8,5.7-7.2,11.3-6.3c5.6-0.7,11.3,8.3,11.2,10c0-1.1-5.6-10.3-11.3-9.8c-5.6-1-11.3,7.7-11.3,6.6
			c-0.1,1.6,5.3-4.9,10.6-3.1c5.3,0.4,10.6,9.1,10.5,10.4c-0.1-1.1-5.4-9.6-10.6-10.2c-5.3-1.8-10.5,4.3-10.7,3.5
			c-0.1,1.2,4.4-2,9,0.1c4.6,1.2,9.2,7.7,9,8.5c-0.2-0.7-4.7-6.9-9.2-8.2c-4.5-2.1-9,0.7-9.2,0.4c-0.2,0.8,3.3,0.9,6.7,3.4
			c3.5,2.1,6.9,6.4,6.7,6.9c-0.2-0.1-3.6-4.4-6.9-6.6c-3.3-2.5-6.7-3.1-7-2.9c-0.5,0.5,8.3,13.5,7.7,14.7c-0.6,0.1-7.6-15-8.3-14
			c-0.6,0.7,2.1,20.5,1.5,21.2s-1.4-21.1-2-20.6c-0.6,0.6-4.4,26.5-5,26.8c-0.6,0.5,5-26.7,4.5-26.4c-0.6,1-10.5,29.4-11,28
			C29.4,73.2,41,44.7,40.5,44c-0.3-0.4-4.2,8.7-8.1,14.6c-3.9,6.4-7.8,9.5-8,8.7c-0.2,0.2,3.8-2.5,7.8-8.8c4-5.7,8.1-15,7.9-14.5
			c-0.2-1-5.1,9-10,12.6c-4.9,4.6-9.8,2.8-10,1.4c-0.2,0.5,4.8,2.8,9.8-1.6c5-3.3,10-13.5,9.9-12.6c-0.1-1.5-5.6,8.6-11.1,9.6
			C23.2,56.2,17.7,49.7,17.6,48z"/>
	</g>
	
		<linearGradient id="SVGID_1_" gradientUnits="userSpaceOnUse" x1="1129.7506" y1="41.3334" x2="1230.5507" y2="41.3334" gradientTransform="matrix(1 0 0 -1 0 93.89)">
		<stop  offset="0" style="stop-color:#000000;stop-opacity:0"/>
		<stop  offset="1" style="stop-color:#000000"/>
	</linearGradient>
	<path class="st1" d="M1154,74.1c0,0,35.5-44.6,76.6-40.7c0,0-62.8-13.8-100.8,26.4C1129.8,59.8,1159.2,42.9,1154,74.1z"/>
	<polygon points="1246.5,47.8 1236.5,41.1 1230.9,51.7 1228.6,39.9 1217.1,43.4 1223.8,33.4 1213.3,27.8 1225,25.5 1221.6,14 
		1231.5,20.7 1237.2,10.2 1239.4,21.9 1250.9,18.5 1244.2,28.4 1254.8,34.1 1243,36.2 	"/>
	<g>
		<path d="M97.5,53.7c-1.8-1.6-3.6-3.2-5.2-5s-3.2-3.8-4.3-6.1c-0.5-1.1-1-2.4-0.8-3.8c0.1-0.7,0.3-1.4,0.8-2c0.4-0.6,1-1,1.6-1.3
			c1.2-0.6,2.5-0.9,3.7-1.1c1.3-0.2,2.5-0.2,3.8-0.2l-0.7,1.1c-0.4-0.6-0.7-1.2-1-1.9c-0.3-0.6-0.5-1.3-0.8-2
			c-0.4-1.3-0.8-2.8-0.7-4.3c0-0.8,0.2-1.5,0.5-2.3c0.3-0.7,0.8-1.4,1.4-2c1.2-1.1,2.7-1.6,4.2-1.8c2.9-0.4,5.7,0,8.4,0.5
			c2.7,0.5,5.3,1.2,7.9,2.1l-1.2,1.8c-0.9-1.1-1.8-2.2-2.6-3.4c-0.8-1.2-1.6-2.4-2.2-3.9c-0.3-0.7-0.6-1.5-0.5-2.6
			c0-0.5,0.3-1.3,0.9-1.7c0.5-0.4,1.1-0.6,1.6-0.6c0.9-0.1,1.7,0.1,2.5,0.2c0.7,0.2,1.4,0.4,2.1,0.6c2.7,1,5.2,2.3,7.7,3.6
			c2.5,1.3,4.9,2.8,7.3,4.2l-1.4,0.2c0.6-0.7,1.3-1.3,1.9-1.9c0.7-0.6,1.3-1.2,2-1.8c1.4-1.1,2.9-2.2,4.4-3.1
			c3.1-1.9,6.5-3.3,10.2-3.6c1.8-0.1,3.7,0,5.5,0.5s3.4,1.4,4.9,2.5s2.7,2.4,3.9,3.8c0.6,0.7,1.1,1.4,1.6,2.2c0.5,0.7,1,1.5,1.4,2.3
			l-0.7-0.1c1.3-1,2.6-1.8,4-2.6c1.4-0.8,2.8-1.6,4.3-2.2s3-1.1,4.6-1.3c0.8-0.1,1.7-0.1,2.5,0.1s1.6,0.6,2.3,1.1
			c0.6,0.6,1.1,1.3,1.4,2.1c0.3,0.8,0.5,1.6,0.6,2.4c0.2,1.6,0.2,3.2,0.1,4.8c-0.1,1.6-0.4,3.2-0.7,4.7c-0.3,1.6-0.7,3.1-1,4.6
			l-0.7-0.6c2.5-0.7,5.1-1.4,7.7-1.9c1.3-0.2,2.6-0.4,4-0.4c0.7,0,1.4,0,2.2,0.3c0.4,0.1,0.8,0.4,1.1,0.9s0.2,1.1,0.1,1.5
			c-0.3,0.8-0.7,1.4-1.1,1.9c-0.4,0.5-0.9,1-1.4,1.5c-1,0.9-2,1.8-3,2.6c-2.1,1.7-4.2,3.2-6.4,4.7l0.3-1.3c0.4,0.6,0.8,1.2,1.1,1.8
			s0.7,1.2,1,1.8c0.6,1.2,1.2,2.5,1.6,3.9c0.2,0.7,0.4,1.4,0.5,2.1c0.1,0.7,0.1,1.5,0,2.3s-0.5,1.6-1.1,2.3s-1.4,1.1-2.1,1.4
			c-1.5,0.5-3,0.5-4.4,0.4c-1.4-0.1-2.8-0.4-4.1-0.7c-2.7-0.6-5.2-1.5-7.8-2.5l1.7-1.3c0.1,1,0.2,1.9,0.3,2.8c0.1,0.9,0.1,1.9,0,2.8
			c-0.1,1.9-0.3,3.8-1,5.7c-0.4,0.9-0.9,1.9-1.8,2.7c-0.8,0.8-2,1.3-3.1,1.4s-2.2,0-3.2-0.3s-1.9-0.6-2.7-1.1
			c-1.7-0.9-3.3-1.9-4.7-3c-1.5-1.1-2.9-2.3-4.2-3.5c-2.7-2.4-5.2-5-7.7-7.6l2.2-0.2c-0.9,1.4-1.7,2.7-2.6,4
			c-0.9,1.3-1.8,2.6-2.8,3.9c-2,2.6-4,5.1-6.5,7.3c-0.7,0.5-1.3,1.1-2.2,1.5c-0.4,0.2-0.9,0.4-1.4,0.6c-0.5,0.1-1.2,0.2-1.8,0
			c-0.7-0.2-1.3-0.6-1.7-1c-0.4-0.5-0.7-0.9-0.8-1.4c-0.4-0.9-0.5-1.8-0.6-2.6c-0.2-1.7-0.1-3.3,0-5c0.1-1.6,0.3-3.2,0.5-4.8
			l1.6,1.3c-5.2,2-10.4,3.8-15.6,5.5c-5.3,1.7-10.6,3.2-16,4.3c-1.4,0.3-2.7,0.5-4.1,0.7s-2.8,0.3-4.2,0.2c-0.7,0-1.5-0.1-2.2-0.4
			c-0.7-0.2-1.6-0.8-1.9-1.7c-0.3-0.9,0-1.7,0.2-2.4c0.3-0.7,0.7-1.3,1.1-1.9c0.8-1.2,1.7-2.2,2.7-3.2s2-2,3-2.9
			C93.2,57.1,95.3,55.4,97.5,53.7z M97.8,53.8c-2.1,1.8-4.1,3.7-6.1,5.6c-1,1-1.9,2-2.8,3s-1.8,2.1-2.5,3.2
			c-0.4,0.6-0.7,1.1-0.9,1.7c-0.2,0.6-0.3,1.2-0.1,1.6c0.1,0.4,0.6,0.7,1.1,0.9c0.6,0.2,1.2,0.2,1.9,0.3c1.3,0,2.7-0.1,4-0.3
			c1.3-0.2,2.7-0.5,4-0.8c5.3-1.2,10.5-3,15.7-4.7c5.2-1.8,10.3-3.7,15.4-5.8l1.9-0.8l-0.2,2c-0.2,1.5-0.3,3.1-0.4,4.6
			c-0.1,1.5-0.1,3.1,0.1,4.5c0.1,0.7,0.2,1.4,0.5,2c0.1,0.3,0.3,0.5,0.4,0.6c0.1,0.1,0.2,0.2,0.3,0.2c0.2,0.1,0.8-0.1,1.3-0.4
			c0.6-0.3,1.1-0.7,1.7-1.2c2.2-1.9,4.2-4.4,6-6.9c0.9-1.3,1.8-2.5,2.7-3.8s1.7-2.6,2.5-3.9l1-1.6l1.3,1.4c2.4,2.6,4.9,5.1,7.5,7.5
			c1.3,1.2,2.6,2.3,4,3.4s2.8,2,4.3,2.8c1.5,0.7,3.1,1.3,4.4,1.1c0.7-0.1,1.2-0.3,1.7-0.7c0.5-0.4,0.9-1,1.2-1.7
			c0.6-1.4,0.8-3.1,0.9-4.8c0-0.8,0-1.7,0-2.6c0-0.9-0.1-1.7-0.2-2.5l-0.3-2.1l1.9,0.8c2.4,1,4.9,1.8,7.4,2.5
			c1.2,0.3,2.5,0.6,3.8,0.7c1.2,0.1,2.5,0.1,3.5-0.2s1.6-1,1.8-2s0-2.3-0.3-3.5s-0.8-2.4-1.4-3.6c-0.6-1.2-1.2-2.3-1.9-3.4l-0.5-0.8
			l0.8-0.5c2.2-1.4,4.3-2.9,6.4-4.4c1-0.8,2-1.6,3-2.4c0.5-0.4,0.9-0.9,1.3-1.3c0.4-0.5,0.8-1,0.9-1.4c0.1-0.2,0.1-0.4,0-0.4
			c0-0.1-0.1-0.2-0.4-0.3c-0.4-0.2-1.1-0.2-1.7-0.3c-1.2,0-2.5,0.1-3.8,0.3c-2.6,0.4-5.1,1-7.6,1.6l-0.9,0.2l0.2-0.9
			c0.8-3,1.5-6.1,1.8-9.2c0.1-1.5,0.2-3.1,0-4.6s-0.7-3-1.8-4s-2.6-1.3-4.1-1.1c-1.5,0.2-3,0.7-4.4,1.3c-2.8,1.2-5.5,2.9-8,4.8
			l-0.4,0.3l-0.3-0.5c-1.8-3-3.9-5.8-6.7-7.7c-1.4-1-2.9-1.7-4.5-2.1s-3.3-0.5-5-0.3c-3.3,0.4-6.5,1.8-9.4,3.7
			c-1.4,0.9-2.8,2-4.1,3.1c-0.6,0.6-1.3,1.1-1.9,1.7c-0.6,0.6-1.2,1.2-1.7,1.8l-0.6,0.7l-0.8-0.5c-2.4-1.4-4.8-2.8-7.3-4
			c-2.4-1.3-4.9-2.5-7.4-3.4c-0.6-0.2-1.3-0.4-1.9-0.6c-0.6-0.1-1.2-0.2-1.7-0.2c-0.2,0-0.4,0.1-0.4,0.1s0,0,0,0.1
			c0,0.3,0.1,0.9,0.3,1.5c0.5,1.2,1.1,2.3,1.9,3.4c0.7,1.1,1.6,2.2,2.4,3.3l2.3,2.9l-3.5-1.2c-2.5-0.8-5.1-1.6-7.6-2.1
			c-2.6-0.5-5.2-0.9-7.7-0.5c-1.2,0.2-2.4,0.6-3.2,1.3c-0.8,0.7-1.2,1.7-1.3,2.9c-0.1,1.2,0.1,2.4,0.5,3.7c0.2,0.6,0.4,1.2,0.6,1.8
			s0.5,1.2,0.8,1.7l0.6,1.2L97,35.7c-1.2,0-2.4,0-3.6,0.1s-2.3,0.4-3.3,0.9S88.4,38,88.3,39c-0.2,1,0.1,2.2,0.6,3.3
			c0.9,2.2,2.3,4.2,3.9,6c1.5,1.9,3.2,3.7,5,5.3l0.1,0.1L97.8,53.8z"/>
	</g>
	<path class="st2" d="M262,15.3c0.1,0,0.1,0,0.2,0c0.6,0,1.2,0,1.8,0c0.7,0,1.3,0.1,2,0.2s1.3,0.1,2,0.2c1.2,0.2,2.4,0.4,3.5,0.7
		c0.6,0.2,1.2,0.3,1.8,0.5c0.1,0,0.2,0.1,0.2,0.3c-0.1,0.6-0.2,1.3-0.3,1.9c-0.1,0.7-0.2,1.4-0.3,2.1c-0.1,0.7-0.2,1.4-0.3,2.1
		c0,0.2-0.1,0.4-0.1,0.7c-0.1-0.1-0.2-0.1-0.2-0.2c-0.9-0.7-2-1.2-3-1.5c-1.4-0.5-2.7-0.8-4.2-1c-0.7-0.1-1.3-0.2-2-0.2
		c-1.6-0.2-3.2-0.2-4.8-0.2c-0.8,0-1.5,0.1-2.2,0.1c-3.5,0.3-6.9,1.1-10.2,2.3c-2.2,0.8-4.3,1.7-6.4,2.7c-1.3,0.6-2.6,1.3-3.9,2
		c-1.7,0.9-3.3,2.1-4.8,3.3c-2.7,2.3-5,5-6.7,8.1c-1,1.8-1.8,3.7-2.4,5.7c-0.1,0.5-0.2,1-0.3,1.5c-0.1,0.8-0.2,1.7-0.2,2.5
		c0,2.1,0.5,4.1,1.2,6c0.9,2.2,2.1,4.1,3.5,5.9c1.9,2.4,4.3,4.2,7,5.6c2.3,1.2,4.8,2.1,7.3,2.6c1.1,0.2,2.1,0.4,3.2,0.6
		c0.6,0.1,1.3,0.1,2,0.2c1.3,0.1,2.6,0.1,3.9,0.1c0.6,0,1.3-0.1,1.9-0.1c0.6,0,1.1-0.1,1.7-0.2c0.7-0.1,1.4-0.2,2.2-0.3
		c1.4-0.2,2.8-0.6,4.2-1c3.9-1.1,7.5-2.9,10.7-5.4c2.5-1.9,4.7-4.2,6.4-6.9c1.4-2.1,2.4-4.4,2.9-6.9c0.2-0.9,0.3-1.8,0.3-2.7
		c0.1-2.8-0.6-5.3-1.9-7.7c-0.8-1.5-1.7-2.8-2.9-4c-1.6-1.7-3.4-2.9-5.5-3.8c-1.5-0.7-3.1-1.1-4.8-1.4c-0.7-0.1-1.4-0.2-2.1-0.3
		c-0.1,0-0.1,0-0.2,0c-0.3,0-0.3,0-0.3-0.3c0-1.7,0-3.5,0-5.2c0-0.2,0-0.2,0.2-0.2c0.8,0.1,1.5,0.2,2.3,0.4c1.7,0.3,3.4,0.9,4.9,1.6
		c2.7,1.2,5.1,2.9,7.2,5.1c1.8,1.9,3.2,4.1,4.1,6.5c0.6,1.5,1,3,1.2,4.5c0.1,0.6,0.2,1.3,0.2,1.9c0,0.9,0.1,1.7,0.1,2.6
		c0,0.7-0.1,1.4-0.2,2.1c-0.2,1.8-0.6,3.5-1.2,5.1c-1,2.9-2.5,5.6-4.5,7.9c-2.1,2.5-4.5,4.5-7.3,6.2c-2.7,1.7-5.7,2.9-8.7,4
		c-1.8,0.6-3.6,1.1-5.4,1.4c-0.8,0.1-1.7,0.3-2.5,0.4c-1.1,0.1-2.3,0.2-3.4,0.2c-0.9,0-1.9,0-2.8,0c-0.8,0-1.7-0.1-2.5-0.2
		c-3.5-0.4-6.9-1.2-10.2-2.6c-2.1-0.9-4-2.1-5.8-3.6c-1.9-1.6-3.5-3.3-4.8-5.4c-1.6-2.5-2.8-5.2-3.4-8.1c-0.2-1-0.3-1.9-0.4-2.9
		c-0.1-0.7-0.1-1.5-0.1-2.2c0-0.1,0-0.2,0-0.2c0-0.1,0-0.2,0-0.4c0-0.1,0-0.1,0-0.2c0-0.7,0-1.4,0.1-2c0.1-0.8,0.2-1.6,0.3-2.4
		c0.4-2.3,1.2-4.6,2.3-6.7c1.1-2.3,2.6-4.4,4.3-6.2c1.3-1.4,2.7-2.6,4.1-3.8c3.5-2.8,7.3-5.2,11.4-7.1c4.1-1.9,8.3-3.1,12.8-3.7
		c1.2-0.2,2.4-0.3,3.6-0.4c0.9-0.1,1.7-0.1,2.6-0.1c0.4,0,0.8,0,1.3,0C261.8,15.3,261.8,15.3,262,15.3C261.9,15.3,262,15.3,262,15.3
		z"/>
	<path class="st3" d="M282.4,15.3c0.1,0,0.1,0,0.2,0c0.6,0,1.2,0,1.8,0c0.7,0,1.3,0.1,2,0.2s1.3,0.1,2,0.2c1.2,0.2,2.4,0.4,3.5,0.7
		c0.6,0.2,1.2,0.3,1.8,0.5c0.1,0,0.2,0.1,0.2,0.3c-0.1,0.6-0.2,1.3-0.3,1.9c-0.1,0.7-0.2,1.4-0.3,2.1c-0.1,0.7-0.2,1.4-0.3,2.1
		c0,0.2-0.1,0.4-0.1,0.7c-0.1-0.1-0.2-0.1-0.2-0.2c-0.9-0.7-2-1.2-3-1.5c-1.4-0.5-2.7-0.8-4.2-1c-0.7-0.1-1.3-0.2-2-0.2
		c-1.6-0.2-3.2-0.2-4.8-0.2c-0.8,0-1.5,0.1-2.3,0.1c-3.5,0.3-6.9,1.1-10.2,2.3c-2.2,0.8-4.3,1.7-6.4,2.7c-1.3,0.6-2.6,1.3-3.9,2
		c-1.7,0.9-3.3,2.1-4.8,3.3c-2.7,2.3-5,5-6.7,8.1c-1,1.8-1.8,3.7-2.4,5.7c-0.1,0.5-0.2,1-0.3,1.5c-0.1,0.8-0.2,1.7-0.2,2.5
		c0,2.1,0.5,4.1,1.2,6c0.9,2.2,2.1,4.1,3.5,5.9c1.9,2.4,4.3,4.2,7,5.6c2.3,1.2,4.8,2.1,7.3,2.6c1.1,0.2,2.1,0.4,3.2,0.6
		c0.6,0.1,1.3,0.1,2,0.2c1.3,0.1,2.6,0.1,3.9,0.1c0.6,0,1.3-0.1,1.9-0.1s1.1-0.1,1.7-0.2c0.7-0.1,1.4-0.2,2.2-0.3
		c1.4-0.2,2.8-0.6,4.2-1c3.9-1.1,7.5-2.9,10.7-5.4c2.5-1.9,4.7-4.2,6.4-6.9c1.4-2.1,2.4-4.4,2.9-6.9c0.2-0.9,0.3-1.8,0.3-2.7
		c0.1-2.8-0.6-5.3-1.9-7.7c-0.8-1.5-1.7-2.8-2.9-4c-1.6-1.7-3.4-2.9-5.5-3.8c-1.5-0.7-3.1-1.1-4.8-1.4c-0.7-0.1-1.4-0.2-2.1-0.3
		c-0.1,0-0.1,0-0.2,0c-0.3,0-0.3,0-0.3-0.3c0-1.7,0-3.5,0-5.2c0-0.2,0-0.2,0.2-0.2c0.8,0.1,1.5,0.2,2.3,0.4c1.7,0.3,3.4,0.9,4.9,1.6
		c2.7,1.2,5.1,2.9,7.2,5.1c1.8,1.9,3.2,4.1,4.1,6.5c0.6,1.5,1,3,1.2,4.5c0.1,0.6,0.2,1.3,0.2,1.9c0,0.9,0.1,1.7,0.1,2.6
		c0,0.7-0.1,1.4-0.2,2.1c-0.2,1.8-0.6,3.5-1.2,5.1c-1,2.9-2.5,5.6-4.5,7.9c-2.1,2.5-4.5,4.5-7.3,6.2c-2.7,1.7-5.7,2.9-8.7,4
		c-1.8,0.6-3.6,1.1-5.4,1.4c-0.8,0.1-1.7,0.3-2.5,0.4c-1.1,0.1-2.3,0.2-3.4,0.2c-0.9,0-1.9,0-2.8,0c-0.8,0-1.7-0.1-2.5-0.2
		c-3.5-0.4-6.9-1.2-10.2-2.6c-2.1-0.9-4-2.1-5.7-3.6c-1.9-1.6-3.5-3.3-4.8-5.4c-1.6-2.5-2.8-5.2-3.4-8.1c-0.2-1-0.3-1.9-0.4-2.9
		c-0.1-0.7-0.1-1.5-0.1-2.2c0-0.1,0-0.2,0-0.2c0-0.1,0-0.2,0-0.4c0-0.1,0-0.1,0-0.2c0-0.7,0-1.4,0.1-2c0.1-0.8,0.2-1.6,0.3-2.4
		c0.4-2.3,1.2-4.6,2.3-6.7c1.1-2.3,2.6-4.4,4.3-6.2c1.3-1.4,2.7-2.6,4.1-3.8c3.5-2.8,7.3-5.2,11.4-7.1s8.3-3.1,12.8-3.7
		c1.2-0.2,2.4-0.3,3.6-0.4c0.9-0.1,1.7-0.1,2.6-0.1c0.4,0,0.8,0,1.3,0C282.2,15.3,282.2,15.3,282.4,15.3
		C282.3,15.3,282.3,15.3,282.4,15.3z"/>
	<path d="M304.2,15.3c0.1,0,0.1,0,0.2,0c0.6,0,1.2,0,1.8,0c0.7,0,1.3,0.1,2,0.2s1.3,0.1,2,0.2c1.2,0.2,2.4,0.4,3.5,0.7
		c0.6,0.2,1.2,0.3,1.8,0.5c0.1,0,0.2,0.1,0.2,0.3c-0.1,0.6-0.2,1.3-0.3,1.9c-0.1,0.7-0.2,1.4-0.3,2.1c-0.1,0.7-0.2,1.4-0.3,2.1
		c0,0.2-0.1,0.4-0.1,0.7c-0.1-0.1-0.2-0.1-0.2-0.2c-0.9-0.7-2-1.2-3-1.5c-1.4-0.5-2.7-0.8-4.2-1c-0.7-0.1-1.3-0.2-2-0.2
		c-1.6-0.2-3.2-0.2-4.8-0.2c-0.8,0-1.5,0.1-2.3,0.1c-3.5,0.3-6.9,1.1-10.2,2.3c-2.2,0.8-4.3,1.7-6.4,2.7c-1.3,0.6-2.6,1.3-3.9,2
		c-1.7,0.9-3.3,2.1-4.8,3.3c-2.7,2.3-5,5-6.7,8.1c-1,1.8-1.8,3.7-2.4,5.7c-0.1,0.5-0.2,1-0.3,1.5c-0.1,0.8-0.2,1.7-0.2,2.5
		c0,2.1,0.5,4.1,1.2,6c0.9,2.2,2.1,4.1,3.5,5.9c1.9,2.4,4.3,4.2,7,5.6c2.3,1.2,4.8,2.1,7.3,2.6c1.1,0.2,2.1,0.4,3.2,0.6
		c0.6,0.1,1.3,0.1,2,0.2c1.3,0.1,2.6,0.1,3.9,0.1c0.6,0,1.3-0.1,1.9-0.1s1.1-0.1,1.7-0.2c0.7-0.1,1.4-0.2,2.2-0.3
		c1.4-0.2,2.8-0.6,4.2-1c3.9-1.1,7.5-2.9,10.7-5.4c2.5-1.9,4.7-4.2,6.4-6.9c1.4-2.1,2.4-4.4,2.9-6.9c0.2-0.9,0.3-1.8,0.3-2.7
		c0.1-2.8-0.6-5.3-1.9-7.7c-0.8-1.5-1.7-2.8-2.9-4c-1.6-1.7-3.4-2.9-5.5-3.8c-1.5-0.7-3.1-1.1-4.8-1.4c-0.7-0.1-1.4-0.2-2.1-0.3
		c-0.1,0-0.1,0-0.2,0c-0.3,0-0.3,0-0.3-0.3c0-1.7,0-3.5,0-5.2c0-0.2,0-0.2,0.2-0.2c0.8,0.1,1.5,0.2,2.3,0.4c1.7,0.3,3.4,0.9,4.9,1.6
		c2.7,1.2,5.1,2.9,7.2,5.1c1.8,1.9,3.2,4.1,4.1,6.5c0.6,1.5,1,3,1.2,4.5c0.1,0.6,0.2,1.3,0.2,1.9c0,0.9,0.1,1.7,0.1,2.6
		c0,0.7-0.1,1.4-0.2,2.1c-0.2,1.8-0.6,3.5-1.2,5.1c-1,2.9-2.5,5.6-4.5,7.9c-2.1,2.5-4.5,4.5-7.3,6.2c-2.7,1.7-5.7,2.9-8.7,4
		c-1.8,0.6-3.6,1.1-5.4,1.4c-0.8,0.1-1.7,0.3-2.5,0.4c-1.1,0.1-2.3,0.2-3.4,0.2c-0.9,0-1.9,0-2.8,0c-0.8,0-1.7-0.1-2.5-0.2
		c-3.5-0.4-6.9-1.2-10.2-2.6c-2.1-0.9-4-2.1-5.7-3.6c-1.9-1.6-3.5-3.3-4.8-5.4c-1.6-2.5-2.8-5.2-3.4-8.1c-0.2-1-0.3-1.9-0.4-2.9
		c-0.1-0.7-0.1-1.5-0.1-2.2c0-0.1,0-0.2,0-0.2c0-0.1,0-0.2,0-0.4c0-0.1,0-0.1,0-0.2c0-0.7,0-1.4,0.1-2c0.1-0.8,0.2-1.6,0.3-2.4
		c0.4-2.3,1.2-4.6,2.3-6.7c1.1-2.3,2.6-4.4,4.3-6.2c1.3-1.4,2.7-2.6,4.1-3.8c3.5-2.8,7.3-5.2,11.4-7.1s8.3-3.1,12.8-3.7
		c1.2-0.2,2.4-0.3,3.6-0.4c0.9-0.1,1.7-0.1,2.6-0.1c0.4,0,0.8,0,1.3,0C304,15.3,304,15.3,304.2,15.3
		C304.1,15.3,304.1,15.3,304.2,15.3z"/>
	<g>
		<path d="M355.4,76.2c5.4-14.5,0.1-14.5-10.3,0c10.4-14.5,16-45.4,10.8-59.9c5.2,14.5,11.4,14.5,12.1,0
			c5.5,14.5,9.8,19.5,20.2,23.4C377.7,52.5,369.1,61.7,355.4,76.2z M385.4,41.2c-9.2-4.7-13.3-10.1-19.4-24.3c0.2,14.2-4,14.2-8.1,0
			c4.1,14.2-1.3,44.4-10.5,58.6c9.2-14.2,13.4-14.2,8.1,0C368.2,61.4,376.3,52.6,385.4,41.2z"/>
		<path d="M382.5,76.2c7.9-14.5,13.5-45.4,10.8-59.9c2.7,14.5,14,14.5,21.9,0c-7.9,14.5-7.9,15.2,0,1.3c-7.9,13.9-18.2,13.9-19.9,0
			c1.7,13.9-0.9,28.3-5.1,28c4.2,0.4,12,0.4,15.2,0c-3.2,0.4-3.3,1-0.2,1.3c-3.1-0.3-10.9-0.3-15.2,0c4.3-0.3,1.7,14.2-5.1,28.1
			c6.7-13.9,18.9-13.9,23.7,0c-4.7-13.9-4.7-13.3,0,1.3C403.9,61.7,390.4,61.7,382.5,76.2z"/>
		<path d="M435.3,57.2c-6-0.3-10.2,4.7-16.7,19.3c-0.7-14.7-2.7-16.7-10.6-9.6c7.3-10,7.8-13.1,1.1-6.1c6.7-7,6.9-7,0.4,0
			c5.8-2.9,8,0.1,9.4,13.8c5.8-13.7,9.4-17.8,14.4-16.3c-5-8.9-7.3-10.2-9.5-12c-3-1.8-5.5-3.4-9.7-12.8c4.2,1.5,8.2-2.9,15.2-17.5
			c-1.2,14.7,0.4,15.8,8.5,5.5c-7.3,12-7.6,14-0.7,4c-7.4,7.8-8.9,6-8-7.8c-6.5,13.8-9.7,17.6-13.1,14.8c3.4,9.4,5.5,10.6,8.4,10.7
			C426.7,46.8,429.4,48.4,435.3,57.2z"/>
		<path d="M447.3,16.3c-2,14.5-0.8,14.5,2.4,0c-3.2,14.5-8.8,45.4-10.9,59.9c2.1-14.5,0.9-14.5-2.3,0
			C439.7,61.7,445.2,30.8,447.3,16.3z"/>
		<path d="M476.5,16.7c-11.6,14.2-18.1,22.1-27.1,34.9c9,4,12.8,9.3,18.6,23.2c1.5-14,3.3-14.4,9.4-2.4c-4.6-12.8-3.3-20.1,2.5-14.1
			c-5.5-7.1-6.2-8-2.5-3.9c-4.6-4.1-5.1-4.1-1,0c-4.1-4.1-4.1-4.4,0.1-0.6c-4.2-3.8-0.9-3.8,6.4,0c-7.3-3.8-9.4,8-4.1,23
			c-5.3-14.9-5.4-16.8-0.2-3.6c-7.1-12.2-9.1-11.5-11.7,3.2c-5.4-14.7-9.8-19.4-20.1-22.9c10.2-14.4,17.9-23.4,31.1-38.3
			c-2.5,14.9-1,15.4,11.2,3.6c-10.2,13.2-10.5,14.8-0.4,3.1C476.8,31.8,474.6,30.9,476.5,16.7z"/>
		<path d="M518.7,76.2C512.3,61.7,499,33,492.8,20.5c6.2,12.5,1.1,41.2-10,55.7c11-14.5,10.5-14.5-1,0
			c11.5-14.5,17.1-45.4,10.7-59.9c6.3,14.5,6.8,14.5,0.9,0c5.9,14.5,18.9,42.2,25.3,53.7c-6.4-11.5-1.4-39.2,9.6-53.7
			c-11,14.5-10.5,14.5,1,0C517.8,30.8,512.3,61.7,518.7,76.2z"/>
		<path d="M533.2,76.2c5.4-14.5,0.1-14.5-10.3,0c10.4-14.5,16-45.4,10.8-59.9c5.2,14.5,11.4,14.5,12.1,0
			c5.5,14.5,9.8,19.5,20.2,23.4C555.6,52.5,547,61.7,533.2,76.2z M563.3,41.2c-9.2-4.7-13.3-10.1-19.4-24.3c0.2,14.2-4,14.2-8.1,0
			c4.1,14.2-1.3,44.4-10.5,58.6c9.2-14.2,13.4-14.2,8.1,0C546,61.4,554.1,52.6,563.3,41.2z"/>
		<path d="M560.4,76.2c7.9-14.5,13.5-45.4,10.8-59.9c2.7,14.5,14,14.5,21.9,0c-7.9,14.5-7.9,15.2,0,1.3c-7.9,13.9-18.2,13.9-19.9,0
			c1.7,13.9-0.9,28.3-5.1,28c4.2,0.4,12,0.4,15.2,0c-3.2,0.4-3.3,1-0.2,1.3c-3.1-0.3-10.9-0.3-15.2,0c4.3-0.3,1.7,14.2-5.1,28.1
			c6.7-13.9,18.9-13.9,23.7,0c-4.7-13.9-4.7-13.3,0,1.3C581.7,61.7,568.3,61.7,560.4,76.2z"/>
		<path d="M597.9,16.2c1.8,14.5,6.2,14.6,8.4,0.1c0.8,14.5,2.8,17.1,9.9,11.9c-7.1,13.5-10.9,18-15.3,18.1c-0.7,0-1.7-0.3-6-0.6
			c3.3,0.3,5.5,0.3,4.4,0c4.9,0.4,8.7-4.1,14.7-17.4c-6,5.4-8,2.9-9.5-11.3c-1.4,14.2-3.7,14.2-4.5,0c0.8,14.2-4.7,44.7-10.6,59.3
			c6-14.5,4.8-14.5-2.2,0C594.1,61.7,599.7,30.8,597.9,16.2z"/>
		<path d="M651,17.6c-8.7,13.9-17.3,13.9-16.7,0c-0.5,13.9-6,44.1-10.6,58.6c4.6-14.5,3.4-14.5-2.2,0c5.7-14.5,11.1-44.7,10.6-58.6
			c0.5,13.9-8.1,13.9-16.7,0c8.7,13.9,8.7,13.3,0-1.3c8.7,14.5,27.1,14.5,35.7,0C642.3,30.8,642.3,31.5,651,17.6z"/>
	</g>
	<g>
		<path class="st4" d="M693.7,23.1c7.8,0,7.8,4.4,15.7,4.4c7.8,0,7.8-4.4,15.7-4.4c7.8,0,7.8,4.4,15.7,4.4c7.8,0,7.8-4.4,15.7-4.4"
			/>
	</g>
	<g>
		<path class="st4" d="M693.7,30.9c7.8,0,7.8,4.4,15.7,4.4c7.8,0,7.8-4.4,15.7-4.4c7.8,0,7.8,4.4,15.7,4.4c7.8,0,7.8-4.4,15.7-4.4"
			/>
	</g>
	<g>
		<path class="st4" d="M693.7,38.8c7.8,0,7.8,4.4,15.7,4.4c7.8,0,7.8-4.4,15.7-4.4c7.8,0,7.8,4.4,15.7,4.4c7.8,0,7.8-4.4,15.7-4.4"
			/>
	</g>
	<g>
		<path class="st4" d="M693.7,46.6c7.8,0,7.8,4.4,15.7,4.4c7.8,0,7.8-4.4,15.7-4.4c7.8,0,7.8,4.4,15.7,4.4c7.8,0,7.8-4.4,15.7-4.4"
			/>
	</g>
	<g>
		<path class="st4" d="M693.7,54.4c7.8,0,7.8,4.4,15.7,4.4c7.8,0,7.8-4.4,15.7-4.4c7.8,0,7.8,4.4,15.7,4.4c7.8,0,7.8-4.4,15.7-4.4"
			/>
	</g>
	<g>
		<path class="st4" d="M693.7,62.2c7.8,0,7.8,4.4,15.7,4.4c7.8,0,7.8-4.4,15.7-4.4c7.8,0,7.8,4.4,15.7,4.4c7.8,0,7.8-4.4,15.7-4.4"
			/>
	</g>
	<rect x="679.9" y="14.9" class="st5" width="89" height="59.3"/>
	<g>
		<g>
			<path d="M825.3,21c-4.8-7.7-12,1-15.5,5.6c-5.1,6.8-15,13.8-15.5,23c-0.3,5.7,2.6,9.8,5.6,14.4c2.3,3.5,3.1,8.3,6.6,11
				c3.1,2.3,8.3,0.4,11.2-0.9c2.5-1.1,4.6-3,6.7-4.7c1.7-1.4,6.5-7.7,9-6.8c0.7,0.2,0.9-0.8,0.3-1c-2.4-0.8-3.4,0.9-5,2.5
				c-4,4.1-8.7,8.3-14.2,10.2c-5.9,2.1-8.9-0.9-11.1-5.8c-1.8-3.9-4.3-7.3-6.4-11c-5.3-9.7,3.1-18.2,9.3-24.7
				c3.6-3.8,12.7-19.5,18-11.1C824.7,22.1,825.7,21.6,825.3,21L825.3,21z"/>
		</g>
	</g>
	<g>
		<g>
			<path d="M846.3,21.2c-8.2,1.7-14.9,6.9-21,12.4c-4.7,4.3-10.5,8.8-10.9,15.6c0,0.3,0.3,0.5,0.5,0.5c6.1,0.6,11.1-3.6,15.8-6.9
				c4.6-3.2,16.5-9.7,17,0.4c0.3,5.8-2.9,12.1-5.4,17.2c-2,4.2-4.3,8.5-7.1,12.3c-0.4,0.6,0.5,1.1,0.9,0.5
				c4.4-6.1,7.9-13.2,10.5-20.2c1.7-4.5,4.6-13.4-1.5-16c-8.6-3.7-18.1,8.1-25.3,10.9c-1.3,0.5-2.6,0.7-4,0.7s1.2-5.2,1.5-5.6
				c1.8-2.8,4.9-5.2,7.3-7.5c6.1-6,13.2-11.6,21.8-13.4C847.2,22.1,847,21.1,846.3,21.2L846.3,21.2z"/>
		</g>
	</g>
	<polygon class="st6" points="905,11.1 906.3,15 910.4,15 907.1,17.5 908.4,21.4 905,19 901.7,21.4 903,17.5 899.6,15 903.8,15 	"/>
	<polygon class="st7" points="920.2,15.4 921.4,19.3 925.6,19.3 922.2,21.7 923.5,25.6 920.2,23.2 916.8,25.6 918.1,21.7 
		914.8,19.3 918.9,19.3 	"/>
	<polygon class="st8" points="931.5,26.5 932.7,30.4 936.9,30.4 933.5,32.9 934.8,36.8 931.5,34.2 928.1,36.8 929.4,32.9 
		926.1,30.4 930.2,30.4 	"/>
	<polygon class="st9" points="935.7,41.8 937,45.7 941.1,45.7 937.7,48.1 939,52 935.7,49.6 932.4,52 933.6,48.1 930.3,45.7 
		934.4,45.7 	"/>
	<polygon class="st10" points="931.5,57.4 932.7,61.2 936.9,61.2 933.5,63.7 934.8,67.7 931.5,65.2 928.1,67.7 929.4,63.7 
		926.1,61.2 930.2,61.2 	"/>
	<polygon class="st11" points="920.2,68.7 921.4,72.6 925.6,72.6 922.2,75 923.5,78.8 920.2,76.5 916.8,78.8 918.1,75 914.8,72.6 
		918.9,72.6 	"/>
	<polygon class="st12" points="904.9,72.7 906.2,76.6 910.3,76.6 907,79 908.2,82.8 904.9,80.5 901.6,82.8 902.9,79 899.5,76.6 
		903.6,76.6 	"/>
	<polygon class="st13" points="889.5,68.7 890.8,72.6 894.9,72.6 891.6,75 892.9,78.8 889.5,76.5 886.2,78.8 887.5,75 884.1,72.6 
		888.3,72.6 	"/>
	<polygon class="st14" points="878.4,57.5 879.6,61.5 883.8,61.5 880.4,63.8 881.7,67.8 878.4,65.3 875,67.8 876.3,63.8 873,61.5 
		877.1,61.5 	"/>
	<polygon class="st15" points="874.3,41.9 875.5,45.8 879.7,45.8 876.3,48.2 877.6,52.2 874.3,49.7 870.9,52.2 872.2,48.2 
		868.9,45.8 873,45.8 	"/>
	<polygon class="st16" points="878.2,26.6 879.5,30.6 883.6,30.6 880.3,33 881.6,36.9 878.2,34.5 874.9,36.9 876.2,33 872.9,30.6 
		877,30.6 	"/>
	<polygon class="st6" points="889.3,15.4 890.6,19.3 894.7,19.3 891.3,21.7 892.6,25.6 889.3,23.2 886,25.6 887.2,21.7 883.9,19.3 
		888,19.3 	"/>
	<path class="st17" d="M1006.4,17.1c-41.1,129.8-45.7,0-45.7,0S988.1,57.7,1006.4,17.1z"/>
	<polygon class="st18" points="1111.7,58.8 1111.7,68 1084.1,68 1084.1,58.8 1093.3,58.8 1093.3,49.6 1074.9,49.6 1074.9,77.2 
		1065.7,77.2 1065.7,49.6 1047.3,49.6 1047.3,58.8 1056.5,58.8 1056.5,68 1028.9,68 1028.9,58.8 1038.1,58.8 1038.1,49.6 
		1019.7,49.6 1019.7,40.4 1038.1,40.4 1038.1,31.2 1028.9,31.2 1028.9,22 1056.5,22 1056.5,31.2 1047.3,31.2 1047.3,40.4 
		1065.7,40.4 1065.7,12.8 1074.9,12.8 1074.9,40.4 1093.3,40.4 1093.3,31.2 1084.1,31.2 1084.1,22 1111.7,22 1111.7,31.2 
		1102.5,31.2 1102.5,40.4 1120.8,40.4 1120.8,49.6 1102.5,49.6 1102.5,58.8 	"/>
</g>
</svg>
