<?xml version="1.0" encoding="utf-8"?>
<!-- Generator: Adobe Illustrator 19.2.1, SVG Export Plug-In . SVG Version: 6.00 Build 0)  -->
<svg version="1.1" id="Layer_1" xmlns="http://www.w3.org/2000/svg" xmlns:xlink="http://www.w3.org/1999/xlink" x="0px" y="0px"
	 viewBox="0 0 1271.9 93" style="enable-background:new 0 0 1271.9 93;" xml:space="preserve">
<style type="text/css">
	.st0{fill:none;stroke:#231F20;stroke-width:0.3769;stroke-miterlimit:10;}
	.st1{fill-rule:evenodd;clip-rule:evenodd;fill:url(#SVGID_1_);}
	.st2{fill-rule:evenodd;clip-rule:evenodd;}
	.st3{opacity:0.2;fill-rule:evenodd;clip-rule:evenodd;}
	.st4{opacity:0.6;fill-rule:evenodd;clip-rule:evenodd;}
	.st5{fill:none;stroke:#000000;stroke-width:3.3348;stroke-miterlimit:10;}
	.st6{fill:none;stroke:#231F20;stroke-width:0.6782;stroke-miterlimit:10;}
	.st7{fill:#231F20;}
	.st8{fill:#E6E7E8;}
	.st9{fill:#D0D2D3;}
	.st10{fill:#BBBDBF;}
	.st11{fill:#A6A8AB;}
	.st12{fill:#929497;}
	.st13{fill:#808184;}
	.st14{fill:#6D6E70;}
	.st15{fill:#58595B;}
	.st16{fill:#404041;}
	.st17{fill:none;stroke:#231F20;stroke-width:0.9195;stroke-miterlimit:10;}
</style>
<g>
	<path class="st0" d="M19.6,50.3c-0.1,0.9,5.4,7.8,11,5.5c5.5-0.8,11.1-10.9,11.1-9.8c0-1.8-5.7,7.2-11.3,6.3
		c-5.6,0.7-11.3-8.4-11.2-10c0,1.1,5.6,10.3,11.3,9.8c5.6,1,11.3-7.7,11.3-6.6c0.1-1.6-5.3,4.9-10.6,3.1C25.8,48,20.5,39.3,20.6,38
		c0.1,1.1,5.4,9.6,10.6,10.2c5.3,1.8,10.5-4.3,10.7-3.5c0.2-1.2-4.4,2-9-0.1c-4.6-1.2-9.2-7.7-9-8.5c0.2,0.7,4.7,6.9,9.2,8.2
		c4.5,2.1,9-0.7,9.2-0.4c0.2-0.8-3.3-0.9-6.7-3.4c-3.5-2.1-6.9-6.4-6.7-6.9c0.3,0.1,3.6,4.4,6.9,6.6c3.3,2.5,6.7,3.1,7,2.9
		c0.6-0.5-8.3-13.5-7.7-14.7c0.6-0.1,7.6,15,8.3,14c0.6-0.8-2.1-20.5-1.4-21.2c0.6-0.7,1.4,21.1,2,20.6c0.6-0.6,4.4-26.5,5-26.8
		c0.6-0.6-5.1,26.7-4.5,26.4c0.6-1,10.5-29.4,11-28.1c0.6-1.4-11,27.1-10.5,27.8c0.3,0.4,4.2-8.7,8.1-14.6c3.9-6.4,7.8-9.5,8-8.7
		c0.2-0.2-3.8,2.5-7.8,8.8c-4,5.7-8.1,15-7.9,14.5c0.2,1,5.1-9,10-12.6c4.9-4.6,9.8-2.8,10-1.4c0.2-0.5-4.8-2.8-9.8,1.6
		c-5,3.3-10,13.5-9.9,12.6c0.1,1.5,5.6-8.6,11.1-9.6c5.5-2.5,11,4,11,5.8c0.1-0.9-5.4-7.8-11-5.5c-5.5,0.8-11.1,10.9-11,9.8
		c0,1.8,5.7-7.2,11.3-6.3c5.6-0.7,11.3,8.3,11.2,10c0-1.1-5.6-10.3-11.3-9.8c-5.6-1-11.3,7.7-11.3,6.6c-0.1,1.6,5.3-4.9,10.6-3.1
		c5.3,0.4,10.6,9.1,10.5,10.4c-0.1-1.1-5.4-9.6-10.6-10.2c-5.3-1.8-10.5,4.3-10.7,3.5c-0.1,1.2,4.4-2,9,0.1c4.6,1.2,9.2,7.7,9,8.5
		c-0.2-0.7-4.7-6.9-9.2-8.2c-4.5-2.1-9,0.7-9.2,0.4c-0.2,0.8,3.3,0.9,6.7,3.4c3.5,2.1,6.9,6.4,6.7,6.9c-0.2-0.1-3.6-4.4-6.9-6.6
		c-3.3-2.5-6.7-3.1-7-2.9c-0.5,0.5,8.3,13.5,7.7,14.7c-0.6,0.1-7.6-15-8.3-14c-0.6,0.7,2.1,20.5,1.5,21.2c-0.6,0.7-1.4-21.1-2-20.6
		c-0.6,0.6-4.4,26.5-5,26.8c-0.6,0.5,5-26.7,4.5-26.4c-0.6,1-10.5,29.4-11,28c-0.6,1.4,11-27.1,10.5-27.8c-0.3-0.4-4.2,8.7-8.1,14.6
		c-3.9,6.4-7.8,9.5-8,8.7c-0.2,0.2,3.8-2.5,7.8-8.8c4-5.7,8.1-15,7.9-14.5c-0.2-1-5.1,9-10,12.6c-4.9,4.6-9.8,2.8-10,1.4
		c-0.2,0.5,4.8,2.8,9.8-1.6c5-3.3,10-13.5,9.9-12.6c-0.1-1.5-5.6,8.6-11.1,9.6C25.2,58.6,19.7,52,19.6,50.3z"/>
</g>
<linearGradient id="SVGID_1_" gradientUnits="userSpaceOnUse" x1="1131.769" y1="54.9162" x2="1232.6031" y2="54.9162">
	<stop  offset="0" style="stop-color:#FFFFFF"/>
	<stop  offset="1" style="stop-color:#000000"/>
</linearGradient>
<path class="st1" d="M1156,76.4c0,0,35.5-44.6,76.6-40.7c0,0-62.8-13.8-100.8,26.4C1131.8,62.1,1161.2,45.2,1156,76.4z"/>
<polygon class="st2" points="1248.5,50.1 1238.5,43.4 1232.9,54 1230.6,42.2 1219.1,45.7 1225.8,35.7 1215.3,30.1 1227,27.8 
	1223.6,16.3 1233.5,23 1239.2,12.5 1241.4,24.2 1252.9,20.8 1246.2,30.7 1256.8,36.4 1245,38.6 "/>
<g>
	<path d="M99.5,56c-1.8-1.6-3.6-3.2-5.2-5c-1.6-1.8-3.2-3.8-4.3-6.1c-0.5-1.1-1-2.4-0.8-3.8c0.1-0.7,0.3-1.4,0.8-2
		c0.4-0.6,1-1,1.6-1.3c1.2-0.6,2.5-0.9,3.7-1.1c1.3-0.2,2.5-0.2,3.8-0.2l-0.7,1.1c-0.4-0.6-0.7-1.2-1-1.9c-0.3-0.6-0.5-1.3-0.8-2
		c-0.4-1.3-0.8-2.8-0.7-4.3c0-0.8,0.2-1.5,0.5-2.3c0.3-0.7,0.8-1.4,1.4-2c1.2-1.1,2.7-1.6,4.2-1.8c2.9-0.4,5.7,0,8.4,0.5
		c2.7,0.5,5.3,1.2,7.9,2.1l-1.2,1.8c-0.9-1.1-1.8-2.2-2.6-3.4c-0.8-1.2-1.6-2.4-2.2-3.9c-0.3-0.7-0.6-1.5-0.5-2.6
		c0-0.5,0.3-1.3,0.9-1.7c0.5-0.4,1.1-0.6,1.6-0.6c0.9-0.1,1.7,0.1,2.5,0.2c0.7,0.2,1.4,0.4,2.1,0.6c2.7,1,5.2,2.3,7.7,3.6
		c2.5,1.3,4.9,2.8,7.3,4.2l-1.4,0.2c0.6-0.7,1.3-1.3,1.9-1.9c0.7-0.6,1.3-1.2,2-1.8c1.4-1.1,2.9-2.2,4.4-3.1
		c3.1-1.9,6.5-3.3,10.2-3.6c1.8-0.1,3.7,0,5.5,0.5c1.8,0.5,3.4,1.4,4.9,2.5c1.5,1.1,2.7,2.4,3.9,3.8c0.6,0.7,1.1,1.4,1.6,2.2
		c0.5,0.7,1,1.5,1.4,2.3l-0.7-0.1c1.3-1,2.6-1.8,4-2.6c1.4-0.8,2.8-1.6,4.3-2.2c1.5-0.6,3-1.1,4.6-1.3c0.8-0.1,1.7-0.1,2.5,0.1
		c0.8,0.2,1.6,0.6,2.3,1.1c0.6,0.6,1.1,1.3,1.4,2.1c0.3,0.8,0.5,1.6,0.6,2.4c0.2,1.6,0.2,3.2,0.1,4.8c-0.1,1.6-0.4,3.2-0.7,4.7
		c-0.3,1.6-0.7,3.1-1,4.6l-0.7-0.6c2.5-0.7,5.1-1.4,7.7-1.9c1.3-0.2,2.6-0.4,4-0.4c0.7,0,1.4,0,2.2,0.3c0.4,0.1,0.8,0.4,1.1,0.9
		c0.3,0.5,0.2,1.1,0.1,1.5c-0.3,0.8-0.7,1.4-1.1,1.9c-0.4,0.5-0.9,1-1.4,1.5c-1,0.9-2,1.8-3,2.6c-2.1,1.7-4.2,3.2-6.4,4.7l0.3-1.3
		c0.4,0.6,0.8,1.2,1.1,1.8c0.3,0.6,0.7,1.2,1,1.8c0.6,1.2,1.2,2.5,1.6,3.9c0.2,0.7,0.4,1.4,0.5,2.1c0.1,0.7,0.1,1.5,0,2.3
		c-0.1,0.8-0.5,1.6-1.1,2.3c-0.6,0.7-1.4,1.1-2.1,1.4c-1.5,0.5-3,0.5-4.4,0.4c-1.4-0.1-2.8-0.4-4.1-0.7c-2.7-0.6-5.2-1.5-7.8-2.5
		l1.7-1.3c0.1,1,0.2,1.9,0.3,2.8c0.1,0.9,0.1,1.9,0,2.8c-0.1,1.9-0.3,3.8-1,5.7c-0.4,0.9-0.9,1.9-1.8,2.7c-0.8,0.8-2,1.3-3.1,1.4
		c-1.1,0.1-2.2,0-3.2-0.3c-1-0.3-1.9-0.6-2.7-1.1c-1.7-0.9-3.3-1.9-4.7-3c-1.5-1.1-2.9-2.3-4.2-3.5c-2.7-2.4-5.2-5-7.7-7.6l2.2-0.2
		c-0.9,1.4-1.7,2.7-2.6,4c-0.9,1.3-1.8,2.6-2.8,3.9c-2,2.6-4,5.1-6.5,7.3c-0.7,0.5-1.3,1.1-2.2,1.5c-0.4,0.2-0.9,0.4-1.4,0.6
		c-0.5,0.1-1.2,0.2-1.8,0c-0.7-0.2-1.3-0.6-1.7-1c-0.4-0.5-0.7-0.9-0.8-1.4c-0.4-0.9-0.5-1.8-0.6-2.6c-0.2-1.7-0.1-3.3,0-5
		c0.1-1.6,0.3-3.2,0.5-4.8l1.6,1.3c-5.2,2-10.4,3.8-15.6,5.5c-5.3,1.7-10.6,3.2-16,4.3c-1.4,0.3-2.7,0.5-4.1,0.7
		c-1.4,0.2-2.8,0.3-4.2,0.2c-0.7,0-1.5-0.1-2.2-0.4c-0.7-0.2-1.6-0.8-1.9-1.7c-0.3-0.9,0-1.7,0.2-2.4c0.3-0.7,0.7-1.3,1.1-1.9
		c0.8-1.2,1.7-2.2,2.7-3.2c1-1,2-2,3-2.9C95.2,59.4,97.3,57.7,99.5,56z M99.8,56.1c-2.1,1.8-4.1,3.7-6.1,5.6c-1,1-1.9,2-2.8,3
		c-0.9,1-1.8,2.1-2.5,3.2c-0.4,0.6-0.7,1.1-0.9,1.7c-0.2,0.6-0.3,1.2-0.1,1.6c0.1,0.4,0.6,0.7,1.1,0.9c0.6,0.2,1.2,0.2,1.9,0.3
		c1.3,0,2.7-0.1,4-0.3c1.3-0.2,2.7-0.5,4-0.8c5.3-1.2,10.5-3,15.7-4.7c5.2-1.8,10.3-3.7,15.4-5.8l1.9-0.8l-0.2,2
		c-0.2,1.5-0.3,3.1-0.4,4.6c-0.1,1.5-0.1,3.1,0.1,4.5c0.1,0.7,0.2,1.4,0.5,2c0.1,0.3,0.3,0.5,0.4,0.6c0.1,0.1,0.2,0.2,0.3,0.2
		c0.2,0.1,0.8-0.1,1.3-0.4c0.6-0.3,1.1-0.7,1.7-1.2c2.2-1.9,4.2-4.4,6-6.9c0.9-1.3,1.8-2.5,2.7-3.8c0.9-1.3,1.7-2.6,2.5-3.9l1-1.6
		l1.3,1.4c2.4,2.6,4.9,5.1,7.5,7.5c1.3,1.2,2.6,2.3,4,3.4c1.4,1.1,2.8,2,4.3,2.8c1.5,0.7,3.1,1.3,4.4,1.1c0.7-0.1,1.2-0.3,1.7-0.7
		c0.5-0.4,0.9-1,1.2-1.7c0.6-1.4,0.8-3.1,0.9-4.8c0-0.8,0-1.7,0-2.6c0-0.9-0.1-1.7-0.2-2.5l-0.3-2.1l1.9,0.8c2.4,1,4.9,1.8,7.4,2.5
		c1.2,0.3,2.5,0.6,3.8,0.7c1.2,0.1,2.5,0.1,3.5-0.2c1-0.3,1.6-1,1.8-2c0.2-1,0-2.3-0.3-3.5c-0.3-1.2-0.8-2.4-1.4-3.6
		c-0.6-1.2-1.2-2.3-1.9-3.4l-0.5-0.8l0.8-0.5c2.2-1.4,4.3-2.9,6.4-4.4c1-0.8,2-1.6,3-2.4c0.5-0.4,0.9-0.9,1.3-1.3
		c0.4-0.5,0.8-1,0.9-1.4c0.1-0.2,0.1-0.4,0-0.4c0-0.1-0.1-0.2-0.4-0.3c-0.4-0.2-1.1-0.2-1.7-0.3c-1.2,0-2.5,0.1-3.8,0.3
		c-2.6,0.4-5.1,1-7.6,1.6l-0.9,0.2l0.2-0.9c0.8-3,1.5-6.1,1.8-9.2c0.1-1.5,0.2-3.1,0-4.6c-0.2-1.5-0.7-3-1.8-4
		c-1.1-1-2.6-1.3-4.1-1.1c-1.5,0.2-3,0.7-4.4,1.3c-2.8,1.2-5.5,2.9-8,4.8l-0.4,0.3l-0.3-0.5c-1.8-3-3.9-5.8-6.7-7.7
		c-1.4-1-2.9-1.7-4.5-2.1c-1.6-0.4-3.3-0.5-5-0.3c-3.3,0.4-6.5,1.8-9.4,3.7c-1.4,0.9-2.8,2-4.1,3.1c-0.6,0.6-1.3,1.1-1.9,1.7
		c-0.6,0.6-1.2,1.2-1.7,1.8l-0.6,0.7l-0.8-0.5c-2.4-1.4-4.8-2.8-7.3-4c-2.4-1.3-4.9-2.5-7.4-3.4c-0.6-0.2-1.3-0.4-1.9-0.6
		c-0.6-0.1-1.2-0.2-1.7-0.2c-0.2,0-0.4,0.1-0.4,0.1c0,0,0,0,0,0.1c0,0.3,0.1,0.9,0.3,1.5c0.5,1.2,1.1,2.3,1.9,3.4
		c0.7,1.1,1.6,2.2,2.4,3.3l2.3,2.9l-3.5-1.2c-2.5-0.8-5.1-1.6-7.6-2.1c-2.6-0.5-5.2-0.9-7.7-0.5c-1.2,0.2-2.4,0.6-3.2,1.3
		c-0.8,0.7-1.2,1.7-1.3,2.9c-0.1,1.2,0.1,2.4,0.5,3.7c0.2,0.6,0.4,1.2,0.6,1.8c0.2,0.6,0.5,1.2,0.8,1.7l0.6,1.2L99,38
		c-1.2,0-2.4,0-3.6,0.1c-1.2,0.1-2.3,0.4-3.3,0.9c-1,0.5-1.7,1.3-1.8,2.3c-0.2,1,0.1,2.2,0.6,3.3c0.9,2.2,2.3,4.2,3.9,6
		c1.5,1.9,3.2,3.7,5,5.3l0.1,0.1L99.8,56.1z"/>
</g>
<path class="st3" d="M264,17.6c0.1,0,0.1,0,0.2,0c0.6,0,1.2,0,1.8,0c0.7,0,1.3,0.1,2,0.2c0.7,0.1,1.3,0.1,2,0.2
	c1.2,0.2,2.4,0.4,3.5,0.7c0.6,0.2,1.2,0.3,1.8,0.5c0.1,0,0.2,0.1,0.2,0.3c-0.1,0.6-0.2,1.3-0.3,1.9c-0.1,0.7-0.2,1.4-0.3,2.1
	c-0.1,0.7-0.2,1.4-0.3,2.1c0,0.2-0.1,0.4-0.1,0.7c-0.1-0.1-0.2-0.1-0.2-0.2c-0.9-0.7-2-1.2-3-1.5c-1.4-0.5-2.7-0.8-4.2-1
	c-0.7-0.1-1.3-0.2-2-0.2c-1.6-0.2-3.2-0.2-4.8-0.2c-0.8,0-1.5,0.1-2.2,0.1c-3.5,0.3-6.9,1.1-10.2,2.3c-2.2,0.8-4.3,1.7-6.4,2.7
	c-1.3,0.6-2.6,1.3-3.9,2c-1.7,0.9-3.3,2.1-4.8,3.3c-2.7,2.3-5,5-6.7,8.1c-1,1.8-1.8,3.7-2.4,5.7c-0.1,0.5-0.2,1-0.3,1.5
	c-0.1,0.8-0.2,1.7-0.2,2.5c0,2.1,0.5,4.1,1.2,6c0.9,2.2,2.1,4.1,3.5,5.9c1.9,2.4,4.3,4.2,7,5.6c2.3,1.2,4.8,2.1,7.3,2.6
	c1.1,0.2,2.1,0.4,3.2,0.6c0.6,0.1,1.3,0.1,2,0.2c1.3,0.1,2.6,0.1,3.9,0.1c0.6,0,1.3-0.1,1.9-0.1c0.6,0,1.1-0.1,1.7-0.2
	c0.7-0.1,1.4-0.2,2.2-0.3c1.4-0.2,2.8-0.6,4.2-1c3.9-1.1,7.5-2.9,10.7-5.4c2.5-1.9,4.7-4.2,6.4-6.9c1.4-2.1,2.4-4.4,2.9-6.9
	c0.2-0.9,0.3-1.8,0.3-2.7c0.1-2.8-0.6-5.3-1.9-7.7c-0.8-1.5-1.7-2.8-2.9-4c-1.6-1.7-3.4-2.9-5.5-3.8c-1.5-0.7-3.1-1.1-4.8-1.4
	c-0.7-0.1-1.4-0.2-2.1-0.3c-0.1,0-0.1,0-0.2,0c-0.3,0-0.3,0-0.3-0.3c0-1.7,0-3.5,0-5.2c0-0.2,0-0.2,0.2-0.2c0.8,0.1,1.5,0.2,2.3,0.4
	c1.7,0.3,3.4,0.9,4.9,1.6c2.7,1.2,5.1,2.9,7.2,5.1c1.8,1.9,3.2,4.1,4.1,6.5c0.6,1.5,1,3,1.2,4.5c0.1,0.6,0.2,1.3,0.2,1.9
	c0,0.9,0.1,1.7,0.1,2.6c0,0.7-0.1,1.4-0.2,2.1c-0.2,1.8-0.6,3.5-1.2,5.1c-1,2.9-2.5,5.6-4.5,7.9c-2.1,2.5-4.5,4.5-7.3,6.2
	c-2.7,1.7-5.7,2.9-8.7,4c-1.8,0.6-3.6,1.1-5.4,1.4c-0.8,0.1-1.7,0.3-2.5,0.4c-1.1,0.1-2.3,0.2-3.4,0.2c-0.9,0-1.9,0-2.8,0
	c-0.8,0-1.7-0.1-2.5-0.2c-3.5-0.4-6.9-1.2-10.2-2.6c-2.1-0.9-4-2.1-5.8-3.6c-1.9-1.6-3.5-3.3-4.8-5.4c-1.6-2.5-2.8-5.2-3.4-8.1
	c-0.2-1-0.3-1.9-0.4-2.9c-0.1-0.7-0.1-1.5-0.1-2.2c0-0.1,0-0.2,0-0.2c0-0.1,0-0.2,0-0.4c0-0.1,0-0.1,0-0.2c0-0.7,0-1.4,0.1-2
	c0.1-0.8,0.2-1.6,0.3-2.4c0.4-2.3,1.2-4.6,2.3-6.7c1.1-2.3,2.6-4.4,4.3-6.2c1.3-1.4,2.7-2.6,4.1-3.8c3.5-2.8,7.3-5.2,11.4-7.1
	c4.1-1.9,8.3-3.1,12.8-3.7c1.2-0.2,2.4-0.3,3.6-0.4c0.9-0.1,1.7-0.1,2.6-0.1c0.4,0,0.8,0,1.3,0c0.1,0,0.1,0,0.2,0
	C263.9,17.6,264,17.6,264,17.6z"/>
<path class="st4" d="M284.4,17.6c0.1,0,0.1,0,0.2,0c0.6,0,1.2,0,1.8,0c0.7,0,1.3,0.1,2,0.2c0.7,0.1,1.3,0.1,2,0.2
	c1.2,0.2,2.4,0.4,3.5,0.7c0.6,0.2,1.2,0.3,1.8,0.5c0.1,0,0.2,0.1,0.2,0.3c-0.1,0.6-0.2,1.3-0.3,1.9c-0.1,0.7-0.2,1.4-0.3,2.1
	c-0.1,0.7-0.2,1.4-0.3,2.1c0,0.2-0.1,0.4-0.1,0.7c-0.1-0.1-0.2-0.1-0.2-0.2c-0.9-0.7-2-1.2-3-1.5c-1.4-0.5-2.7-0.8-4.2-1
	c-0.7-0.1-1.3-0.2-2-0.2c-1.6-0.2-3.2-0.2-4.8-0.2c-0.8,0-1.5,0.1-2.3,0.1c-3.5,0.3-6.9,1.1-10.2,2.3c-2.2,0.8-4.3,1.7-6.4,2.7
	c-1.3,0.6-2.6,1.3-3.9,2c-1.7,0.9-3.3,2.1-4.8,3.3c-2.7,2.3-5,5-6.7,8.1c-1,1.8-1.8,3.7-2.4,5.7c-0.1,0.5-0.2,1-0.3,1.5
	c-0.1,0.8-0.2,1.7-0.2,2.5c0,2.1,0.5,4.1,1.2,6c0.9,2.2,2.1,4.1,3.5,5.9c1.9,2.4,4.3,4.2,7,5.6c2.3,1.2,4.8,2.1,7.3,2.6
	c1.1,0.2,2.1,0.4,3.2,0.6c0.6,0.1,1.3,0.1,2,0.2c1.3,0.1,2.6,0.1,3.9,0.1c0.6,0,1.3-0.1,1.9-0.1c0.6,0,1.1-0.1,1.7-0.2
	c0.7-0.1,1.4-0.2,2.2-0.3c1.4-0.2,2.8-0.6,4.2-1c3.9-1.1,7.5-2.9,10.7-5.4c2.5-1.9,4.7-4.2,6.4-6.9c1.4-2.1,2.4-4.4,2.9-6.9
	c0.2-0.9,0.3-1.8,0.3-2.7c0.1-2.8-0.6-5.3-1.9-7.7c-0.8-1.5-1.7-2.8-2.9-4c-1.6-1.7-3.4-2.9-5.5-3.8c-1.5-0.7-3.1-1.1-4.8-1.4
	c-0.7-0.1-1.4-0.2-2.1-0.3c-0.1,0-0.1,0-0.2,0c-0.3,0-0.3,0-0.3-0.3c0-1.7,0-3.5,0-5.2c0-0.2,0-0.2,0.2-0.2c0.8,0.1,1.5,0.2,2.3,0.4
	c1.7,0.3,3.4,0.9,4.9,1.6c2.7,1.2,5.1,2.9,7.2,5.1c1.8,1.9,3.2,4.1,4.1,6.5c0.6,1.5,1,3,1.2,4.5c0.1,0.6,0.2,1.3,0.2,1.9
	c0,0.9,0.1,1.7,0.1,2.6c0,0.7-0.1,1.4-0.2,2.1c-0.2,1.8-0.6,3.5-1.2,5.1c-1,2.9-2.5,5.6-4.5,7.9c-2.1,2.5-4.5,4.5-7.3,6.2
	c-2.7,1.7-5.7,2.9-8.7,4c-1.8,0.6-3.6,1.1-5.4,1.4c-0.8,0.1-1.7,0.3-2.5,0.4c-1.1,0.1-2.3,0.2-3.4,0.2c-0.9,0-1.9,0-2.8,0
	c-0.8,0-1.7-0.1-2.5-0.2c-3.5-0.4-6.9-1.2-10.2-2.6c-2.1-0.9-4-2.1-5.7-3.6c-1.9-1.6-3.5-3.3-4.8-5.4c-1.6-2.5-2.8-5.2-3.4-8.1
	c-0.2-1-0.3-1.9-0.4-2.9c-0.1-0.7-0.1-1.5-0.1-2.2c0-0.1,0-0.2,0-0.2c0-0.1,0-0.2,0-0.4c0-0.1,0-0.1,0-0.2c0-0.7,0-1.4,0.1-2
	c0.1-0.8,0.2-1.6,0.3-2.4c0.4-2.3,1.2-4.6,2.3-6.7c1.1-2.3,2.6-4.4,4.3-6.2c1.3-1.4,2.7-2.6,4.1-3.8c3.5-2.8,7.3-5.2,11.4-7.1
	c4.1-1.9,8.3-3.1,12.8-3.7c1.2-0.2,2.4-0.3,3.6-0.4c0.9-0.1,1.7-0.1,2.6-0.1c0.4,0,0.8,0,1.3,0c0.1,0,0.1,0,0.2,0
	C284.3,17.6,284.3,17.6,284.4,17.6z"/>
<path class="st2" d="M306.2,17.6c0.1,0,0.1,0,0.2,0c0.6,0,1.2,0,1.8,0c0.7,0,1.3,0.1,2,0.2c0.7,0.1,1.3,0.1,2,0.2
	c1.2,0.2,2.4,0.4,3.5,0.7c0.6,0.2,1.2,0.3,1.8,0.5c0.1,0,0.2,0.1,0.2,0.3c-0.1,0.6-0.2,1.3-0.3,1.9c-0.1,0.7-0.2,1.4-0.3,2.1
	c-0.1,0.7-0.2,1.4-0.3,2.1c0,0.2-0.1,0.4-0.1,0.7c-0.1-0.1-0.2-0.1-0.2-0.2c-0.9-0.7-2-1.2-3-1.5c-1.4-0.5-2.7-0.8-4.2-1
	c-0.7-0.1-1.3-0.2-2-0.2c-1.6-0.2-3.2-0.2-4.8-0.2c-0.8,0-1.5,0.1-2.3,0.1c-3.5,0.3-6.9,1.1-10.2,2.3c-2.2,0.8-4.3,1.7-6.4,2.7
	c-1.3,0.6-2.6,1.3-3.9,2c-1.7,0.9-3.3,2.1-4.8,3.3c-2.7,2.3-5,5-6.7,8.1c-1,1.8-1.8,3.7-2.4,5.7c-0.1,0.5-0.2,1-0.3,1.5
	c-0.1,0.8-0.2,1.7-0.2,2.5c0,2.1,0.5,4.1,1.2,6c0.9,2.2,2.1,4.1,3.5,5.9c1.9,2.4,4.3,4.2,7,5.6c2.3,1.2,4.8,2.1,7.3,2.6
	c1.1,0.2,2.1,0.4,3.2,0.6c0.6,0.1,1.3,0.1,2,0.2c1.3,0.1,2.6,0.1,3.9,0.1c0.6,0,1.3-0.1,1.9-0.1c0.6,0,1.1-0.1,1.7-0.2
	c0.7-0.1,1.4-0.2,2.2-0.3c1.4-0.2,2.8-0.6,4.2-1c3.9-1.1,7.5-2.9,10.7-5.4c2.5-1.9,4.7-4.2,6.4-6.9c1.4-2.1,2.4-4.4,2.9-6.9
	c0.2-0.9,0.3-1.8,0.3-2.7c0.1-2.8-0.6-5.3-1.9-7.7c-0.8-1.5-1.7-2.8-2.9-4c-1.6-1.7-3.4-2.9-5.5-3.8c-1.5-0.7-3.1-1.1-4.8-1.4
	c-0.7-0.1-1.4-0.2-2.1-0.3c-0.1,0-0.1,0-0.2,0c-0.3,0-0.3,0-0.3-0.3c0-1.7,0-3.5,0-5.2c0-0.2,0-0.2,0.2-0.2c0.8,0.1,1.5,0.2,2.3,0.4
	c1.7,0.3,3.4,0.9,4.9,1.6c2.7,1.2,5.1,2.9,7.2,5.1c1.8,1.9,3.2,4.1,4.1,6.5c0.6,1.5,1,3,1.2,4.5c0.1,0.6,0.2,1.3,0.2,1.9
	c0,0.9,0.1,1.7,0.1,2.6c0,0.7-0.1,1.4-0.2,2.1c-0.2,1.8-0.6,3.5-1.2,5.1c-1,2.9-2.5,5.6-4.5,7.9c-2.1,2.5-4.5,4.5-7.3,6.2
	c-2.7,1.7-5.7,2.9-8.7,4c-1.8,0.6-3.6,1.1-5.4,1.4c-0.8,0.1-1.7,0.3-2.5,0.4c-1.1,0.1-2.3,0.2-3.4,0.2c-0.9,0-1.9,0-2.8,0
	c-0.8,0-1.7-0.1-2.5-0.2c-3.5-0.4-6.9-1.2-10.2-2.6c-2.1-0.9-4-2.1-5.7-3.6c-1.9-1.6-3.5-3.3-4.8-5.4c-1.6-2.5-2.8-5.2-3.4-8.1
	c-0.2-1-0.3-1.9-0.4-2.9c-0.1-0.7-0.1-1.5-0.1-2.2c0-0.1,0-0.2,0-0.2c0-0.1,0-0.2,0-0.4c0-0.1,0-0.1,0-0.2c0-0.7,0-1.4,0.1-2
	c0.1-0.8,0.2-1.6,0.3-2.4c0.4-2.3,1.2-4.6,2.3-6.7c1.1-2.3,2.6-4.4,4.3-6.2c1.3-1.4,2.7-2.6,4.1-3.8c3.5-2.8,7.3-5.2,11.4-7.1
	c4.1-1.9,8.3-3.1,12.8-3.7c1.2-0.2,2.4-0.3,3.6-0.4c0.9-0.1,1.7-0.1,2.6-0.1c0.4,0,0.8,0,1.3,0c0.1,0,0.1,0,0.2,0
	C306.1,17.6,306.1,17.6,306.2,17.6z"/>
<g>
	<path d="M357.4,78.5c5.4-14.5,0.1-14.5-10.3,0c10.4-14.5,16-45.4,10.8-59.9c5.2,14.5,11.4,14.5,12.1,0c5.5,14.5,9.8,19.5,20.2,23.4
		C379.7,54.8,371.1,64,357.4,78.5z M387.4,43.6c-9.2-4.7-13.3-10.1-19.4-24.3c0.2,14.2-4,14.2-8.1,0c4.1,14.2-1.3,44.4-10.5,58.6
		c9.2-14.2,13.4-14.2,8.1,0C370.2,63.7,378.3,54.9,387.4,43.6z"/>
	<path d="M384.5,78.5c7.9-14.5,13.5-45.4,10.8-59.9c2.7,14.5,14,14.5,21.9,0c-7.9,14.5-7.9,15.2,0,1.3c-7.9,13.9-18.2,13.9-19.9,0
		c1.7,13.9-0.9,28.3-5.1,28c4.2,0.4,12,0.4,15.2,0c-3.2,0.4-3.3,1-0.2,1.3c-3.1-0.3-10.9-0.3-15.2,0c4.3-0.3,1.7,14.2-5.1,28.1
		c6.7-13.9,18.9-13.9,23.7,0c-4.7-13.9-4.7-13.3,0,1.3C405.9,64,392.4,64,384.5,78.5z"/>
	<path d="M437.3,59.5c-6-0.3-10.2,4.7-16.7,19.3c-0.7-14.7-2.7-16.7-10.6-9.6c7.3-10,7.8-13.1,1.1-6.1c6.7-7,6.9-7,0.4,0
		c5.8-2.9,8,0.1,9.4,13.8c5.8-13.7,9.4-17.8,14.4-16.3c-5-8.9-7.3-10.2-9.5-12c-3-1.8-5.5-3.4-9.7-12.8c4.2,1.5,8.2-2.9,15.2-17.5
		c-1.2,14.7,0.4,15.8,8.5,5.5c-7.3,12-7.6,14-0.7,4c-7.4,7.8-8.9,6-8-7.8c-6.5,13.8-9.7,17.6-13.1,14.8c3.4,9.4,5.5,10.6,8.4,10.7
		C428.7,49.1,431.4,50.7,437.3,59.5z"/>
	<path d="M449.3,18.6c-2,14.5-0.8,14.5,2.4,0c-3.2,14.5-8.8,45.4-10.9,59.9c2.1-14.5,0.9-14.5-2.3,0C441.7,64,447.2,33.1,449.3,18.6
		z"/>
	<path d="M478.5,19c-11.6,14.2-18.1,22.1-27.1,34.9c9,4,12.8,9.3,18.6,23.2c1.5-14,3.3-14.4,9.4-2.4c-4.6-12.8-3.3-20.1,2.5-14.1
		c-5.5-7.1-6.2-8-2.5-3.9c-4.6-4.1-5.1-4.1-1,0c-4.1-4.1-4.1-4.4,0.1-0.6c-4.2-3.8-0.9-3.8,6.4,0c-7.3-3.8-9.4,8-4.1,23
		c-5.3-14.9-5.4-16.8-0.2-3.6c-7.1-12.2-9.1-11.5-11.7,3.2c-5.4-14.7-9.8-19.4-20.1-22.9c10.2-14.4,17.9-23.4,31.1-38.3
		c-2.5,14.9-1,15.4,11.2,3.6c-10.2,13.2-10.5,14.8-0.4,3.1C478.8,34.1,476.6,33.2,478.5,19z"/>
	<path d="M520.7,78.5C514.3,64,501,35.3,494.8,22.8c6.2,12.5,1.1,41.2-10,55.7c11-14.5,10.5-14.5-1,0c11.5-14.5,17.1-45.4,10.7-59.9
		c6.3,14.5,6.8,14.5,0.9,0c5.9,14.5,18.9,42.2,25.3,53.7c-6.4-11.5-1.4-39.2,9.6-53.7c-11,14.5-10.5,14.5,1,0
		C519.8,33.1,514.3,64,520.7,78.5z"/>
	<path d="M535.2,78.5c5.4-14.5,0.1-14.5-10.3,0c10.4-14.5,16-45.4,10.8-59.9c5.2,14.5,11.4,14.5,12.1,0c5.5,14.5,9.8,19.5,20.2,23.4
		C557.6,54.8,549,64,535.2,78.5z M565.3,43.6c-9.2-4.7-13.3-10.1-19.4-24.3c0.2,14.2-4,14.2-8.1,0c4.1,14.2-1.3,44.4-10.5,58.6
		c9.2-14.2,13.4-14.2,8.1,0C548,63.7,556.1,54.9,565.3,43.6z"/>
	<path d="M562.4,78.5c7.9-14.5,13.5-45.4,10.8-59.9c2.7,14.5,14,14.5,21.9,0c-7.9,14.5-7.9,15.2,0,1.3c-7.9,13.9-18.2,13.9-19.9,0
		c1.7,13.9-0.9,28.3-5.1,28c4.2,0.4,12,0.4,15.2,0c-3.2,0.4-3.3,1-0.2,1.3c-3.1-0.3-10.9-0.3-15.2,0c4.3-0.3,1.7,14.2-5.1,28.1
		c6.7-13.9,18.9-13.9,23.7,0c-4.7-13.9-4.7-13.3,0,1.3C583.7,64,570.3,64,562.4,78.5z"/>
	<path d="M599.9,18.5c1.8,14.5,6.2,14.6,8.4,0.1c0.8,14.5,2.8,17.1,9.9,11.9c-7.1,13.5-10.9,18-15.3,18.1c-0.7,0-1.7-0.3-6-0.6
		c3.3,0.3,5.5,0.3,4.4,0c4.9,0.4,8.7-4.1,14.7-17.4c-6,5.4-8,2.9-9.5-11.3c-1.4,14.2-3.7,14.2-4.5,0c0.8,14.2-4.7,44.7-10.6,59.3
		c6-14.5,4.8-14.5-2.2,0C596.1,64,601.7,33.1,599.9,18.5z"/>
	<path d="M653,19.9c-8.7,13.9-17.3,13.9-16.7,0c-0.5,13.9-6,44.1-10.6,58.6c4.6-14.5,3.4-14.5-2.2,0c5.7-14.5,11.1-44.7,10.6-58.6
		c0.5,13.9-8.1,13.9-16.7,0c8.7,13.9,8.7,13.3,0-1.3c8.7,14.5,27.1,14.5,35.7,0C644.3,33.1,644.3,33.8,653,19.9z"/>
</g>
<g>
	<path class="st5" d="M695.7,25.4c7.8,0,7.8,4.4,15.7,4.4c7.8,0,7.8-4.4,15.7-4.4c7.8,0,7.8,4.4,15.7,4.4c7.8,0,7.8-4.4,15.7-4.4"/>
</g>
<g>
	<path class="st5" d="M695.7,33.2c7.8,0,7.8,4.4,15.7,4.4c7.8,0,7.8-4.4,15.7-4.4c7.8,0,7.8,4.4,15.7,4.4c7.8,0,7.8-4.4,15.7-4.4"/>
</g>
<g>
	<path class="st5" d="M695.7,41.1c7.8,0,7.8,4.4,15.7,4.4c7.8,0,7.8-4.4,15.7-4.4c7.8,0,7.8,4.4,15.7,4.4c7.8,0,7.8-4.4,15.7-4.4"/>
</g>
<g>
	<path class="st5" d="M695.7,48.9c7.8,0,7.8,4.4,15.7,4.4c7.8,0,7.8-4.4,15.7-4.4c7.8,0,7.8,4.4,15.7,4.4c7.8,0,7.8-4.4,15.7-4.4"/>
</g>
<g>
	<path class="st5" d="M695.7,56.7c7.8,0,7.8,4.4,15.7,4.4c7.8,0,7.8-4.4,15.7-4.4c7.8,0,7.8,4.4,15.7,4.4c7.8,0,7.8-4.4,15.7-4.4"/>
</g>
<g>
	<path class="st5" d="M695.7,64.6c7.8,0,7.8,4.4,15.7,4.4c7.8,0,7.8-4.4,15.7-4.4c7.8,0,7.8,4.4,15.7,4.4c7.8,0,7.8-4.4,15.7-4.4"/>
</g>
<rect x="681.9" y="17.2" class="st6" width="89" height="59.3"/>
<g>
	<g>
		<path d="M827.3,23.3c-4.8-7.7-12,1-15.5,5.6c-5.1,6.8-15,13.8-15.5,23c-0.3,5.7,2.6,9.8,5.6,14.4c2.3,3.5,3.1,8.3,6.6,11
			c3.1,2.3,8.3,0.4,11.2-0.9c2.5-1.1,4.6-3,6.7-4.7c1.7-1.4,6.5-7.7,9-6.8c0.7,0.2,0.9-0.8,0.3-1c-2.4-0.8-3.4,0.9-5,2.5
			c-4,4.1-8.7,8.3-14.2,10.2c-5.9,2.1-8.9-0.9-11.1-5.8c-1.8-3.9-4.3-7.3-6.4-11c-5.3-9.7,3.1-18.2,9.3-24.7
			c3.6-3.8,12.7-19.5,18-11.1C826.7,24.4,827.7,23.9,827.3,23.3L827.3,23.3z"/>
	</g>
</g>
<g>
	<g>
		<path d="M848.3,23.5c-8.2,1.7-14.9,6.9-21,12.4c-4.7,4.3-10.5,8.8-10.9,15.6c0,0.3,0.3,0.5,0.5,0.5c6.1,0.6,11.1-3.6,15.8-6.9
			c4.6-3.2,16.5-9.7,17,0.4c0.3,5.8-2.9,12.1-5.4,17.2c-2,4.2-4.3,8.5-7.1,12.3c-0.4,0.6,0.5,1.1,0.9,0.5
			c4.4-6.1,7.9-13.2,10.5-20.2c1.7-4.5,4.6-13.4-1.5-16c-8.6-3.7-18.1,8.1-25.3,10.9c-1.3,0.5-2.6,0.7-4,0.7c-1.4,0,1.2-5.2,1.5-5.6
			c1.8-2.8,4.9-5.2,7.3-7.5c6.1-6,13.2-11.6,21.8-13.4C849.2,24.4,849,23.4,848.3,23.5L848.3,23.5z"/>
	</g>
</g>
<polygon class="st7" points="907,13.4 908.3,17.3 912.4,17.3 909.1,19.8 910.4,23.7 907,21.3 903.7,23.7 905,19.8 901.6,17.3 
	905.8,17.3 "/>
<polygon class="st7" points="922.2,17.7 923.4,21.6 927.6,21.6 924.2,24 925.5,27.9 922.2,25.5 918.8,27.9 920.1,24 916.8,21.6 
	920.9,21.6 "/>
<polygon class="st8" points="933.5,28.8 934.7,32.7 938.9,32.7 935.5,35.2 936.8,39.1 933.5,36.6 930.1,39.1 931.4,35.2 928.1,32.7 
	932.2,32.7 "/>
<polygon class="st9" points="937.7,44.1 939,48 943.1,48 939.7,50.4 941,54.3 937.7,51.9 934.4,54.3 935.6,50.4 932.3,48 936.4,48 
	"/>
<polygon class="st10" points="933.5,59.7 934.7,63.6 938.9,63.6 935.5,66 936.8,70 933.5,67.5 930.1,70 931.4,66 928.1,63.6 
	932.2,63.6 "/>
<polygon class="st11" points="922.2,71 923.4,74.9 927.6,74.9 924.2,77.3 925.5,81.2 922.2,78.8 918.8,81.2 920.1,77.3 916.8,74.9 
	920.9,74.9 "/>
<polygon class="st12" points="906.9,75 908.2,78.9 912.3,78.9 909,81.3 910.2,85.2 906.9,82.8 903.6,85.2 904.9,81.3 901.5,78.9 
	905.6,78.9 "/>
<polygon class="st13" points="891.5,71 892.8,74.9 896.9,74.9 893.6,77.3 894.9,81.2 891.5,78.8 888.2,81.2 889.5,77.3 886.1,74.9 
	890.3,74.9 "/>
<polygon class="st14" points="880.4,59.8 881.6,63.8 885.8,63.8 882.4,66.2 883.7,70.1 880.4,67.7 877,70.1 878.3,66.2 875,63.8 
	879.1,63.8 "/>
<polygon class="st15" points="876.3,44.2 877.5,48.1 881.7,48.1 878.3,50.5 879.6,54.5 876.3,52 872.9,54.5 874.2,50.5 870.9,48.1 
	875,48.1 "/>
<polygon class="st16" points="880.2,28.9 881.5,32.9 885.6,32.9 882.3,35.3 883.6,39.2 880.2,36.8 876.9,39.2 878.2,35.3 
	874.9,32.9 879,32.9 "/>
<polygon class="st7" points="891.3,17.7 892.6,21.6 896.7,21.6 893.3,24 894.6,27.9 891.3,25.5 888,27.9 889.2,24 885.9,21.6 
	890,21.6 "/>
<path class="st7" d="M1008.4,19.4c-41.1,129.8-45.7,0-45.7,0S990.1,60,1008.4,19.4z"/>
<polygon class="st17" points="1113.7,61.1 1113.7,70.3 1086.1,70.3 1086.1,61.1 1095.3,61.1 1095.3,51.9 1076.9,51.9 1076.9,79.5 
	1067.7,79.5 1067.7,51.9 1049.3,51.9 1049.3,61.1 1058.5,61.1 1058.5,70.3 1030.9,70.3 1030.9,61.1 1040.1,61.1 1040.1,51.9 
	1021.7,51.9 1021.7,42.7 1040.1,42.7 1040.1,33.5 1030.9,33.5 1030.9,24.3 1058.5,24.3 1058.5,33.5 1049.3,33.5 1049.3,42.7 
	1067.7,42.7 1067.7,15.1 1076.9,15.1 1076.9,42.7 1095.3,42.7 1095.3,33.5 1086.1,33.5 1086.1,24.3 1113.7,24.3 1113.7,33.5 
	1104.5,33.5 1104.5,42.7 1122.8,42.7 1122.8,51.9 1104.5,51.9 1104.5,61.1 "/>
</svg>
