<?xml version="1.0" encoding="utf-8"?>
<!-- Generator: Adobe Illustrator 19.2.1, SVG Export Plug-In . SVG Version: 6.00 Build 0)  -->
<svg version="1.1" id="Layer_1" xmlns="http://www.w3.org/2000/svg" xmlns:xlink="http://www.w3.org/1999/xlink" x="0px" y="0px"
	 viewBox="0 0 1190.5 841.9" style="enable-background:new 0 0 1190.5 841.9;" xml:space="preserve">
<style type="text/css">
	.st0{fill:none;stroke:#151011;stroke-width:0.3808;stroke-miterlimit:10;}
</style>
<path class="st0" d="M-9.5,844.2c0,0,120.9,0,120.9-120.9l0,80.6"/>
<path class="st0" d="M232.3,844.2c0,0-120.9,0-120.9,120.9v-80.6"/>
<path class="st0" d="M312.9,844.2c0,0,120.9,0,120.9-120.9v80.6"/>
<path class="st0" d="M554.7,844.2c0,0-120.9,0-120.9,120.9v-80.6"/>
<path class="st0" d="M109.5,864.3h19.4c5.4,0,9.7-4.3,9.7-9.7c0-5.4-4.3-9.7-9.7-9.7"/>
<path class="st0" d="M114.7,859.1H129c2.5,0,4.5-2,4.5-4.5c0-2.5-2-4.5-4.5-4.5h-5.3"/>
<path class="st0" d="M138.6,825.5h-19.4c-5.4,0-9.7,4.3-9.7,9.7s4.3,9.7,9.7,9.7"/>
<path class="st0" d="M106.6,864.3c-10.7,0-19.4-8.7-19.4-19.4c0-10.7,8.7-19.4,19.4-19.4"/>
<path class="st0" d="M106.6,859.1c-7.9,0-14.2-6.4-14.2-14.2c0-7.9,6.4-14.2,14.2-14.2"/>
<path class="st0" d="M106.6,854c-5,0-9-4.1-9-9c0-5,4.1-9,9-9"/>
<path class="st0" d="M106.6,848.8c-2.1,0-3.9-1.7-3.9-3.9c0-2.1,1.7-3.9,3.9-3.9"/>
<path class="st0" d="M133.4,830.7h-14.3c-2.5,0-4.5,2-4.5,4.5c0,2.5,2,4.5,4.5,4.5h5.3"/>
<path class="st0" d="M431.9,864.3h19.4c5.4,0,9.7-4.3,9.7-9.7c0-5.4-4.3-9.7-9.7-9.7"/>
<path class="st0" d="M437.1,859.1h14.3c2.5,0,4.5-2,4.5-4.5c0-2.5-2-4.5-4.5-4.5h-5.3"/>
<path class="st0" d="M461,825.5h-19.4c-5.4,0-9.7,4.3-9.7,9.7s4.3,9.7,9.7,9.7"/>
<path class="st0" d="M429,864.3c-10.7,0-19.4-8.7-19.4-19.4c0-10.7,8.7-19.4,19.4-19.4"/>
<path class="st0" d="M429,859.1c-7.9,0-14.2-6.4-14.2-14.2c0-7.9,6.4-14.2,14.2-14.2"/>
<path class="st0" d="M429,854c-5,0-9-4.1-9-9c0-5,4.1-9,9-9"/>
<path class="st0" d="M429,848.8c-2.1,0-3.9-1.7-3.9-3.9c0-2.1,1.7-3.9,3.9-3.9"/>
<path class="st0" d="M455.8,830.7h-14.3c-2.5,0-4.5,2-4.5,4.5c0,2.5,2,4.5,4.5,4.5h5.3"/>
<path class="st0" d="M-9.5,562.1c0,0,120.9,0,120.9-120.9l0,80.6"/>
<path class="st0" d="M232.3,562.1c0,0-120.9,0-120.9,120.9v-80.6"/>
<path class="st0" d="M312.9,562.1c0,0,120.9,0,120.9-120.9v80.6"/>
<path class="st0" d="M554.7,562.1c0,0-120.9,0-120.9,120.9v-80.6"/>
<path class="st0" d="M109.5,582.2h19.4c5.4,0,9.7-4.3,9.7-9.7c0-5.4-4.3-9.7-9.7-9.7"/>
<path class="st0" d="M114.7,577H129c2.5,0,4.5-2,4.5-4.5c0-2.5-2-4.5-4.5-4.5h-5.3"/>
<path class="st0" d="M138.6,543.4h-19.4c-5.4,0-9.7,4.3-9.7,9.7s4.3,9.7,9.7,9.7"/>
<path class="st0" d="M106.6,582.2c-10.7,0-19.4-8.7-19.4-19.4c0-10.7,8.7-19.4,19.4-19.4"/>
<path class="st0" d="M106.6,577c-7.9,0-14.2-6.4-14.2-14.2c0-7.9,6.4-14.2,14.2-14.2"/>
<path class="st0" d="M106.6,571.9c-5,0-9-4.1-9-9c0-5,4.1-9,9-9"/>
<path class="st0" d="M106.6,566.7c-2.1,0-3.9-1.7-3.9-3.9c0-2.1,1.7-3.9,3.9-3.9"/>
<path class="st0" d="M133.4,548.6h-14.3c-2.5,0-4.5,2-4.5,4.5c0,2.5,2,4.5,4.5,4.5h5.3"/>
<path class="st0" d="M431.9,582.2h19.4c5.4,0,9.7-4.3,9.7-9.7c0-5.4-4.3-9.7-9.7-9.7"/>
<path class="st0" d="M437.1,577h14.3c2.5,0,4.5-2,4.5-4.5c0-2.5-2-4.5-4.5-4.5h-5.3"/>
<path class="st0" d="M461,543.4h-19.4c-5.4,0-9.7,4.3-9.7,9.7s4.3,9.7,9.7,9.7"/>
<path class="st0" d="M429,582.2c-10.7,0-19.4-8.7-19.4-19.4c0-10.7,8.7-19.4,19.4-19.4"/>
<path class="st0" d="M429,577c-7.9,0-14.2-6.4-14.2-14.2c0-7.9,6.4-14.2,14.2-14.2"/>
<path class="st0" d="M429,571.9c-5,0-9-4.1-9-9c0-5,4.1-9,9-9"/>
<path class="st0" d="M429,566.7c-2.1,0-3.9-1.7-3.9-3.9c0-2.1,1.7-3.9,3.9-3.9"/>
<path class="st0" d="M455.8,548.6h-14.3c-2.5,0-4.5,2-4.5,4.5c0,2.5,2,4.5,4.5,4.5h5.3"/>
<path class="st0" d="M635.3,844.2c0,0,120.9,0,120.9-120.9v80.6"/>
<path class="st0" d="M877.1,844.2c0,0-120.9,0-120.9,120.9v-80.6"/>
<path class="st0" d="M957.7,844.2c0,0,120.9,0,120.9-120.9l0,80.6"/>
<path class="st0" d="M1199.5,844.2c0,0-120.9,0-120.9,120.9v-80.6"/>
<path class="st0" d="M754.3,864.3h19.4c5.4,0,9.7-4.3,9.7-9.7c0-5.4-4.3-9.7-9.7-9.7"/>
<path class="st0" d="M759.5,859.1h14.3c2.5,0,4.5-2,4.5-4.5c0-2.5-2-4.5-4.5-4.5h-5.3"/>
<path class="st0" d="M783.4,825.5H764c-5.4,0-9.7,4.3-9.7,9.7s4.3,9.7,9.7,9.7"/>
<path class="st0" d="M751.4,864.3c-10.7,0-19.4-8.7-19.4-19.4c0-10.7,8.7-19.4,19.4-19.4"/>
<path class="st0" d="M751.4,859.1c-7.9,0-14.2-6.4-14.2-14.2c0-7.9,6.4-14.2,14.2-14.2"/>
<path class="st0" d="M751.4,854c-5,0-9.1-4.1-9.1-9c0-5,4.1-9,9.1-9"/>
<path class="st0" d="M751.4,848.8c-2.1,0-3.9-1.7-3.9-3.9c0-2.1,1.7-3.9,3.9-3.9"/>
<path class="st0" d="M778.2,830.7h-14.3c-2.5,0-4.5,2-4.5,4.5c0,2.5,2,4.5,4.5,4.5h5.3"/>
<path class="st0" d="M1076.7,864.3h19.4c5.4,0,9.7-4.3,9.7-9.7c0-5.4-4.3-9.7-9.7-9.7"/>
<path class="st0" d="M1081.9,859.1h14.3c2.5,0,4.5-2,4.5-4.5c0-2.5-2-4.5-4.5-4.5h-5.3"/>
<path class="st0" d="M1105.8,825.5h-19.4c-5.4,0-9.7,4.3-9.7,9.7s4.3,9.7,9.7,9.7"/>
<path class="st0" d="M1073.8,864.3c-10.7,0-19.4-8.7-19.4-19.4c0-10.7,8.7-19.4,19.4-19.4"/>
<path class="st0" d="M1073.8,859.1c-7.9,0-14.2-6.4-14.2-14.2c0-7.9,6.4-14.2,14.2-14.2"/>
<path class="st0" d="M1073.8,854c-5,0-9-4.1-9-9c0-5,4.1-9,9-9"/>
<path class="st0" d="M1073.8,848.8c-2.1,0-3.9-1.7-3.9-3.9c0-2.1,1.7-3.9,3.9-3.9"/>
<path class="st0" d="M1100.6,830.7h-14.3c-2.5,0-4.5,2-4.5,4.5c0,2.5,2,4.5,4.5,4.5h5.3"/>
<path class="st0" d="M635.3,562.1c0,0,120.9,0,120.9-120.9v80.6"/>
<path class="st0" d="M877.1,562.1c0,0-120.9,0-120.9,120.9v-80.6"/>
<path class="st0" d="M957.7,562.1c0,0,120.9,0,120.9-120.9l0,80.6"/>
<path class="st0" d="M1199.5,562.1c0,0-120.9,0-120.9,120.9v-80.6"/>
<path class="st0" d="M754.3,582.2h19.4c5.4,0,9.7-4.3,9.7-9.7c0-5.4-4.3-9.7-9.7-9.7"/>
<path class="st0" d="M759.5,577h14.3c2.5,0,4.5-2,4.5-4.5c0-2.5-2-4.5-4.5-4.5h-5.3"/>
<path class="st0" d="M783.4,543.4H764c-5.4,0-9.7,4.3-9.7,9.7s4.3,9.7,9.7,9.7"/>
<path class="st0" d="M751.4,582.2c-10.7,0-19.4-8.7-19.4-19.4c0-10.7,8.7-19.4,19.4-19.4"/>
<path class="st0" d="M751.4,577c-7.9,0-14.2-6.4-14.2-14.2c0-7.9,6.4-14.2,14.2-14.2"/>
<path class="st0" d="M751.4,571.9c-5,0-9.1-4.1-9.1-9c0-5,4.1-9,9.1-9"/>
<path class="st0" d="M751.4,566.7c-2.1,0-3.9-1.7-3.9-3.9c0-2.1,1.7-3.9,3.9-3.9"/>
<path class="st0" d="M778.2,548.6h-14.3c-2.5,0-4.5,2-4.5,4.5c0,2.5,2,4.5,4.5,4.5h5.3"/>
<path class="st0" d="M1076.7,582.2h19.4c5.4,0,9.7-4.3,9.7-9.7c0-5.4-4.3-9.7-9.7-9.7"/>
<path class="st0" d="M1081.9,577h14.3c2.5,0,4.5-2,4.5-4.5c0-2.5-2-4.5-4.5-4.5h-5.3"/>
<path class="st0" d="M1105.8,543.4h-19.4c-5.4,0-9.7,4.3-9.7,9.7s4.3,9.7,9.7,9.7"/>
<path class="st0" d="M1073.8,582.2c-10.7,0-19.4-8.7-19.4-19.4c0-10.7,8.7-19.4,19.4-19.4"/>
<path class="st0" d="M1073.8,577c-7.9,0-14.2-6.4-14.2-14.2c0-7.9,6.4-14.2,14.2-14.2"/>
<path class="st0" d="M1073.8,571.9c-5,0-9-4.1-9-9c0-5,4.1-9,9-9"/>
<path class="st0" d="M1073.8,566.7c-2.1,0-3.9-1.7-3.9-3.9c0-2.1,1.7-3.9,3.9-3.9"/>
<path class="st0" d="M1100.6,548.6h-14.3c-2.5,0-4.5,2-4.5,4.5c0,2.5,2,4.5,4.5,4.5h5.3"/>
<path class="st0" d="M-9.5,279.9c0,0,120.9,0,120.9-120.9l0,80.6"/>
<path class="st0" d="M232.3,279.9c0,0-120.9,0-120.9,120.9v-80.6"/>
<path class="st0" d="M312.9,279.9c0,0,120.9,0,120.9-120.9v80.6"/>
<path class="st0" d="M554.7,279.9c0,0-120.9,0-120.9,120.9v-80.6"/>
<path class="st0" d="M109.5,300.1h19.4c5.4,0,9.7-4.3,9.7-9.7c0-5.4-4.3-9.7-9.7-9.7"/>
<path class="st0" d="M114.7,294.9H129c2.5,0,4.5-2,4.5-4.5c0-2.5-2-4.5-4.5-4.5h-5.3"/>
<path class="st0" d="M138.6,261.3h-19.4c-5.4,0-9.7,4.3-9.7,9.7s4.3,9.7,9.7,9.7"/>
<path class="st0" d="M106.6,300.1c-10.7,0-19.4-8.7-19.4-19.4c0-10.7,8.7-19.4,19.4-19.4"/>
<path class="st0" d="M106.6,294.9c-7.9,0-14.2-6.4-14.2-14.2s6.4-14.2,14.2-14.2"/>
<path class="st0" d="M106.6,289.8c-5,0-9-4.1-9-9c0-5,4.1-9,9-9"/>
<path class="st0" d="M106.6,284.6c-2.1,0-3.9-1.7-3.9-3.9s1.7-3.9,3.9-3.9"/>
<path class="st0" d="M133.4,266.5h-14.3c-2.5,0-4.5,2-4.5,4.5c0,2.5,2,4.5,4.5,4.5h5.3"/>
<path class="st0" d="M431.9,300.1h19.4c5.4,0,9.7-4.3,9.7-9.7c0-5.4-4.3-9.7-9.7-9.7"/>
<path class="st0" d="M437.1,294.9h14.3c2.5,0,4.5-2,4.5-4.5c0-2.5-2-4.5-4.5-4.5h-5.3"/>
<path class="st0" d="M461,261.3h-19.4c-5.4,0-9.7,4.3-9.7,9.7s4.3,9.7,9.7,9.7"/>
<path class="st0" d="M429,300.1c-10.7,0-19.4-8.7-19.4-19.4c0-10.7,8.7-19.4,19.4-19.4"/>
<path class="st0" d="M429,294.9c-7.9,0-14.2-6.4-14.2-14.2s6.4-14.2,14.2-14.2"/>
<path class="st0" d="M429,289.8c-5,0-9-4.1-9-9c0-5,4.1-9,9-9"/>
<path class="st0" d="M429,284.6c-2.1,0-3.9-1.7-3.9-3.9s1.7-3.9,3.9-3.9"/>
<path class="st0" d="M455.8,266.5h-14.3c-2.5,0-4.5,2-4.5,4.5c0,2.5,2,4.5,4.5,4.5h5.3"/>
<path class="st0" d="M-9.5-2.2c0,0,120.9,0,120.9-120.9l0,80.6"/>
<path class="st0" d="M232.3-2.2c0,0-120.9,0-120.9,120.9V38.1"/>
<path class="st0" d="M312.9-2.2c0,0,120.9,0,120.9-120.9v80.6"/>
<path class="st0" d="M554.7-2.2c0,0-120.9,0-120.9,120.9V38.1"/>
<path class="st0" d="M109.5,18h19.4c5.4,0,9.7-4.3,9.7-9.7c0-5.4-4.3-9.7-9.7-9.7"/>
<path class="st0" d="M114.7,12.8H129c2.5,0,4.5-2,4.5-4.5c0-2.5-2-4.5-4.5-4.5h-5.3"/>
<path class="st0" d="M138.6-20.8h-19.4c-5.4,0-9.7,4.3-9.7,9.7c0,5.4,4.3,9.7,9.7,9.7"/>
<path class="st0" d="M106.6,18C95.9,18,87.2,9.3,87.2-1.4c0-10.7,8.7-19.4,19.4-19.4"/>
<path class="st0" d="M106.6,12.8c-7.9,0-14.2-6.4-14.2-14.2c0-7.9,6.4-14.2,14.2-14.2"/>
<path class="st0" d="M106.6,7.7c-5,0-9-4.1-9-9c0-5,4.1-9,9-9"/>
<path class="st0" d="M106.6,2.5c-2.1,0-3.9-1.7-3.9-3.9c0-2.1,1.7-3.9,3.9-3.9"/>
<path class="st0" d="M133.4-15.6h-14.3c-2.5,0-4.5,2-4.5,4.5c0,2.5,2,4.5,4.5,4.5h5.3"/>
<path class="st0" d="M431.9,18h19.4c5.4,0,9.7-4.3,9.7-9.7c0-5.4-4.3-9.7-9.7-9.7"/>
<path class="st0" d="M437.1,12.8h14.3c2.5,0,4.5-2,4.5-4.5c0-2.5-2-4.5-4.5-4.5h-5.3"/>
<path class="st0" d="M461-20.8h-19.4c-5.4,0-9.7,4.3-9.7,9.7c0,5.4,4.3,9.7,9.7,9.7"/>
<path class="st0" d="M429,18c-10.7,0-19.4-8.7-19.4-19.4c0-10.7,8.7-19.4,19.4-19.4"/>
<path class="st0" d="M429,12.8c-7.9,0-14.2-6.4-14.2-14.2c0-7.9,6.4-14.2,14.2-14.2"/>
<path class="st0" d="M429,7.7c-5,0-9-4.1-9-9c0-5,4.1-9,9-9"/>
<path class="st0" d="M429,2.5c-2.1,0-3.9-1.7-3.9-3.9c0-2.1,1.7-3.9,3.9-3.9"/>
<path class="st0" d="M455.8-15.6h-14.3c-2.5,0-4.5,2-4.5,4.5c0,2.5,2,4.5,4.5,4.5h5.3"/>
<path class="st0" d="M635.3,279.9c0,0,120.9,0,120.9-120.9v80.6"/>
<path class="st0" d="M877.1,279.9c0,0-120.9,0-120.9,120.9v-80.6"/>
<path class="st0" d="M957.7,279.9c0,0,120.9,0,120.9-120.9l0,80.6"/>
<path class="st0" d="M1199.5,279.9c0,0-120.9,0-120.9,120.9v-80.6"/>
<path class="st0" d="M754.3,300.1h19.4c5.4,0,9.7-4.3,9.7-9.7c0-5.4-4.3-9.7-9.7-9.7"/>
<path class="st0" d="M759.5,294.9h14.3c2.5,0,4.5-2,4.5-4.5c0-2.5-2-4.5-4.5-4.5h-5.3"/>
<path class="st0" d="M783.4,261.3H764c-5.4,0-9.7,4.3-9.7,9.7s4.3,9.7,9.7,9.7"/>
<path class="st0" d="M751.4,300.1c-10.7,0-19.4-8.7-19.4-19.4c0-10.7,8.7-19.4,19.4-19.4"/>
<path class="st0" d="M751.4,294.9c-7.9,0-14.2-6.4-14.2-14.2s6.4-14.2,14.2-14.2"/>
<path class="st0" d="M751.4,289.8c-5,0-9.1-4.1-9.1-9c0-5,4.1-9,9.1-9"/>
<path class="st0" d="M751.4,284.6c-2.1,0-3.9-1.7-3.9-3.9s1.7-3.9,3.9-3.9"/>
<path class="st0" d="M778.2,266.5h-14.3c-2.5,0-4.5,2-4.5,4.5c0,2.5,2,4.5,4.5,4.5h5.3"/>
<path class="st0" d="M1076.7,300.1h19.4c5.4,0,9.7-4.3,9.7-9.7c0-5.4-4.3-9.7-9.7-9.7"/>
<path class="st0" d="M1081.9,294.9h14.3c2.5,0,4.5-2,4.5-4.5c0-2.5-2-4.5-4.5-4.5h-5.3"/>
<path class="st0" d="M1105.8,261.3h-19.4c-5.4,0-9.7,4.3-9.7,9.7s4.3,9.7,9.7,9.7"/>
<path class="st0" d="M1073.8,300.1c-10.7,0-19.4-8.7-19.4-19.4c0-10.7,8.7-19.4,19.4-19.4"/>
<path class="st0" d="M1073.8,294.9c-7.9,0-14.2-6.4-14.2-14.2s6.4-14.2,14.2-14.2"/>
<path class="st0" d="M1073.8,289.8c-5,0-9-4.1-9-9c0-5,4.1-9,9-9"/>
<path class="st0" d="M1073.8,284.6c-2.1,0-3.9-1.7-3.9-3.9s1.7-3.9,3.9-3.9"/>
<path class="st0" d="M1100.6,266.5h-14.3c-2.5,0-4.5,2-4.5,4.5c0,2.5,2,4.5,4.5,4.5h5.3"/>
<path class="st0" d="M635.3-2.2c0,0,120.9,0,120.9-120.9v80.6"/>
<path class="st0" d="M877.1-2.2c0,0-120.9,0-120.9,120.9V38.1"/>
<path class="st0" d="M957.7-2.2c0,0,120.9,0,120.9-120.9l0,80.6"/>
<path class="st0" d="M1199.5-2.2c0,0-120.9,0-120.9,120.9V38.1"/>
<path class="st0" d="M754.3,18h19.4c5.4,0,9.7-4.3,9.7-9.7c0-5.4-4.3-9.7-9.7-9.7"/>
<path class="st0" d="M759.5,12.8h14.3c2.5,0,4.5-2,4.5-4.5c0-2.5-2-4.5-4.5-4.5h-5.3"/>
<path class="st0" d="M783.4-20.8H764c-5.4,0-9.7,4.3-9.7,9.7c0,5.4,4.3,9.7,9.7,9.7"/>
<path class="st0" d="M751.4,18C740.7,18,732,9.3,732-1.4c0-10.7,8.7-19.4,19.4-19.4"/>
<path class="st0" d="M751.4,12.8c-7.9,0-14.2-6.4-14.2-14.2c0-7.9,6.4-14.2,14.2-14.2"/>
<path class="st0" d="M751.4,7.7c-5,0-9.1-4.1-9.1-9c0-5,4.1-9,9.1-9"/>
<path class="st0" d="M751.4,2.5c-2.1,0-3.9-1.7-3.9-3.9c0-2.1,1.7-3.9,3.9-3.9"/>
<path class="st0" d="M778.2-15.6h-14.3c-2.5,0-4.5,2-4.5,4.5c0,2.5,2,4.5,4.5,4.5h5.3"/>
<path class="st0" d="M1076.7,18h19.4c5.4,0,9.7-4.3,9.7-9.7c0-5.4-4.3-9.7-9.7-9.7"/>
<path class="st0" d="M1081.9,12.8h14.3c2.5,0,4.5-2,4.5-4.5c0-2.5-2-4.5-4.5-4.5h-5.3"/>
<path class="st0" d="M1105.8-20.8h-19.4c-5.4,0-9.7,4.3-9.7,9.7c0,5.4,4.3,9.7,9.7,9.7"/>
<path class="st0" d="M1073.8,18c-10.7,0-19.4-8.7-19.4-19.4c0-10.7,8.7-19.4,19.4-19.4"/>
<path class="st0" d="M1073.8,12.8c-7.9,0-14.2-6.4-14.2-14.2c0-7.9,6.4-14.2,14.2-14.2"/>
<path class="st0" d="M1073.8,7.7c-5,0-9-4.1-9-9c0-5,4.1-9,9-9"/>
<path class="st0" d="M1073.8,2.5c-2.1,0-3.9-1.7-3.9-3.9c0-2.1,1.7-3.9,3.9-3.9"/>
<path class="st0" d="M1100.6-15.6h-14.3c-2.5,0-4.5,2-4.5,4.5c0,2.5,2,4.5,4.5,4.5h5.3"/>
</svg>
