<?xml version="1.0" encoding="utf-8"?>
<!-- Generator: Adobe Illustrator 19.2.1, SVG Export Plug-In . SVG Version: 6.00 Build 0)  -->
<svg version="1.1" id="Layer_1" xmlns="http://www.w3.org/2000/svg" xmlns:xlink="http://www.w3.org/1999/xlink" x="0px" y="0px"
	 viewBox="0 0 1332.7 841.9" style="enable-background:new 0 0 1332.7 841.9;" xml:space="preserve">
<style type="text/css">
	.st0{fill:none;}
	.st1{fill:#FFFFFF;}
	.st2{fill:none;stroke:#000000;stroke-miterlimit:10;}
	.st3{fill:url(#New_Pattern);stroke:#000000;stroke-miterlimit:10;}
</style>
<pattern  width="465" height="330" patternUnits="userSpaceOnUse" id="New_Pattern" viewBox="161.6 -666.1 465 330" style="overflow:visible;">
	<g>
		<rect x="161.6" y="-666.1" class="st0" width="465" height="330"/>
		<g>
			<g>
				<path class="st1" d="M515.7-660.3c-68.2-95.9-175-245.8-243.2-341.7"/>
				<path class="st2" d="M515.7-660.3c-68.2-95.9-175-245.8-243.2-341.7"/>
			</g>
			<g>
				<path class="st1" d="M484.5-786.3c25.7,47-3.3,115.6,0.3,152"/>
				<path class="st2" d="M484.5-786.3c25.7,47-3.3,115.6,0.3,152"/>
			</g>
		</g>
		<g>
			<g>
				<path class="st1" d="M465.3-532.1c90.5-75.2,232-192.9,322.5-268.1"/>
				<path class="st2" d="M465.3-532.1c90.5-75.2,232-192.9,322.5-268.1"/>
			</g>
			<g>
				<path class="st1" d="M748.2-495.3C679.9-591.2,573.2-741.1,505-837"/>
				<path class="st2" d="M748.2-495.3C679.9-591.2,573.2-741.1,505-837"/>
			</g>
			<g>
				<path class="st1" d="M550-674.3c42.8,3.9,109.6,10.1,152.4,14"/>
				<path class="st2" d="M550-674.3c42.8,3.9,109.6,10.1,152.4,14"/>
			</g>
			<g>
				<path class="st1" d="M595.6-597.4c40-37.7,33.2-101.6,51.1-149.9"/>
				<path class="st2" d="M595.6-597.4c40-37.7,33.2-101.6,51.1-149.9"/>
			</g>
		</g>
		<g>
			<g>
				<path class="st1" d="M232.8-367.1c90.5-75.2,232-192.9,322.5-268.1"/>
				<path class="st2" d="M232.8-367.1c90.5-75.2,232-192.9,322.5-268.1"/>
			</g>
			<g>
				<path class="st1" d="M515.7-330.3c-68.2-95.9-175-245.8-243.2-341.7"/>
				<path class="st2" d="M515.7-330.3c-68.2-95.9-175-245.8-243.2-341.7"/>
			</g>
			<g>
				<path class="st1" d="M317.5-509.3c42.8,3.9,109.6,10.1,152.4,14"/>
				<path class="st2" d="M317.5-509.3c42.8,3.9,109.6,10.1,152.4,14"/>
			</g>
			<g>
				<path class="st1" d="M363.1-432.4c40-37.7,33.2-101.6,51.1-149.9"/>
				<path class="st2" d="M363.1-432.4c40-37.7,33.2-101.6,51.1-149.9"/>
			</g>
			<g>
				<path class="st1" d="M484.5-456.3c25.7,47-3.3,115.6,0.3,152"/>
				<path class="st2" d="M484.5-456.3c25.7,47-3.3,115.6,0.3,152"/>
			</g>
		</g>
		<g>
			<g>
				<path class="st1" d="M0.3-532.1c90.5-75.2,232-192.9,322.5-268.1"/>
				<path class="st2" d="M0.3-532.1c90.5-75.2,232-192.9,322.5-268.1"/>
			</g>
			<g>
				<path class="st1" d="M283.2-495.3C214.9-591.2,108.2-741.1,40-837"/>
				<path class="st2" d="M283.2-495.3C214.9-591.2,108.2-741.1,40-837"/>
			</g>
			<g>
				<path class="st1" d="M85-674.3c42.8,3.9,109.6,10.1,152.4,14"/>
				<path class="st2" d="M85-674.3c42.8,3.9,109.6,10.1,152.4,14"/>
			</g>
			<g>
				<path class="st1" d="M130.6-597.4c40-37.7,33.2-101.6,51.1-149.9"/>
				<path class="st2" d="M130.6-597.4c40-37.7,33.2-101.6,51.1-149.9"/>
			</g>
			<g>
				<path class="st1" d="M252-621.3c25.7,47-3.3,115.6,0.3,152"/>
				<path class="st2" d="M252-621.3c25.7,47-3.3,115.6,0.3,152"/>
			</g>
		</g>
		<g>
			<g>
				<path class="st1" d="M465.3-202.1c90.5-75.2,232-192.9,322.5-268.1"/>
				<path class="st2" d="M465.3-202.1c90.5-75.2,232-192.9,322.5-268.1"/>
			</g>
			<g>
				<path class="st1" d="M748.2-165.3C679.9-261.2,573.2-411.1,505-507"/>
				<path class="st2" d="M748.2-165.3C679.9-261.2,573.2-411.1,505-507"/>
			</g>
			<g>
				<path class="st1" d="M550-344.3c42.8,3.9,109.6,10.1,152.4,14"/>
				<path class="st2" d="M550-344.3c42.8,3.9,109.6,10.1,152.4,14"/>
			</g>
			<g>
				<path class="st1" d="M595.6-267.4c40-37.7,33.2-101.6,51.1-149.9"/>
				<path class="st2" d="M595.6-267.4c40-37.7,33.2-101.6,51.1-149.9"/>
			</g>
		</g>
		<g>
			<g>
				<path class="st1" d="M515.7-0.3c-68.2-95.9-175-245.8-243.2-341.7"/>
				<path class="st2" d="M515.7-0.3c-68.2-95.9-175-245.8-243.2-341.7"/>
			</g>
		</g>
		<g>
			<g>
				<path class="st1" d="M0.3-202.1c90.5-75.2,232-192.9,322.5-268.1"/>
				<path class="st2" d="M0.3-202.1c90.5-75.2,232-192.9,322.5-268.1"/>
			</g>
			<g>
				<path class="st1" d="M283.2-165.3C214.9-261.2,108.2-411.1,40-507"/>
				<path class="st2" d="M283.2-165.3C214.9-261.2,108.2-411.1,40-507"/>
			</g>
			<g>
				<path class="st1" d="M85-344.3c42.8,3.9,109.6,10.1,152.4,14"/>
				<path class="st2" d="M85-344.3c42.8,3.9,109.6,10.1,152.4,14"/>
			</g>
			<g>
				<path class="st1" d="M130.6-267.4c40-37.7,33.2-101.6,51.1-149.9"/>
				<path class="st2" d="M130.6-267.4c40-37.7,33.2-101.6,51.1-149.9"/>
			</g>
		</g>
	</g>
</pattern>
<rect y="-0.7" class="st3" width="1332.7" height="842.6"/>
</svg>
