<svg id="Layer_1" data-name="Layer 1" xmlns="http://www.w3.org/2000/svg" viewBox="0 0 1190.55 841.89"><defs><style>.cls-1{fill:none;stroke:#151011;stroke-miterlimit:10;stroke-width:0.78px;}</style></defs><title>watermark3</title><path class="cls-1" d="M679.24,413.33c31.39,0,31.39,13.35,62.78,13.35s31.39-13.35,62.78-13.35,31.39,13.35,62.79,13.35,31.39-13.35,62.79-13.35,31.39,13.35,62.79,13.35"/><line class="cls-1" x1="796.96" y1="576.96" x2="875.44" y2="263.04"/><line class="cls-1" x1="863.67" y1="447.47" x2="808.73" y2="392.53"/><line class="cls-1" x1="796.96" y1="451.39" x2="875.44" y2="388.61"/><path class="cls-1" d="M1071.65,413.33c31.39,0,31.39,13.35,62.78,13.35s31.39-13.35,62.78-13.35,31.39,13.35,62.79,13.35,31.39-13.35,62.79-13.35,31.39,13.35,62.79,13.35"/><line class="cls-1" x1="1189.37" y1="576.96" x2="1267.85" y2="263.04"/><line class="cls-1" x1="1189.37" y1="451.39" x2="1267.85" y2="388.61"/><path class="cls-1" d="M577.22,813.58c31.39,0,31.39,13.35,62.78,13.35s31.39-13.35,62.78-13.35,31.39,13.35,62.79,13.35,31.39-13.35,62.79-13.35,31.39,13.35,62.79,13.35"/><line class="cls-1" x1="694.94" y1="977.21" x2="773.42" y2="663.29"/><line class="cls-1" x1="761.65" y1="847.72" x2="706.71" y2="792.79"/><line class="cls-1" x1="694.94" y1="851.65" x2="773.42" y2="788.86"/><path class="cls-1" d="M969.62,813.58c31.39,0,31.39,13.35,62.78,13.35s31.39-13.35,62.78-13.35,31.39,13.35,62.79,13.35,31.39-13.35,62.79-13.35,31.39,13.35,62.79,13.35"/><line class="cls-1" x1="1087.34" y1="977.21" x2="1165.82" y2="663.29"/><line class="cls-1" x1="1154.05" y1="847.72" x2="1099.12" y2="792.79"/><line class="cls-1" x1="1087.34" y1="851.65" x2="1165.82" y2="788.86"/><path class="cls-1" d="M781.27,13.07c31.39,0,31.39,13.35,62.78,13.35s31.39-13.35,62.78-13.35,31.39,13.35,62.79,13.35S1001,13.07,1032.4,13.07s31.39,13.35,62.79,13.35"/><line class="cls-1" x1="898.99" y1="176.71" x2="977.47" y2="-137.22"/><line class="cls-1" x1="965.7" y1="47.21" x2="910.76" y2="-7.72"/><line class="cls-1" x1="898.99" y1="51.14" x2="977.47" y2="-11.65"/><path class="cls-1" d="M1173.67,13.07c31.39,0,31.39,13.35,62.78,13.35s31.39-13.35,62.78-13.35,31.39,13.35,62.79,13.35,31.39-13.35,62.79-13.35,31.39,13.35,62.79,13.35"/><path class="cls-1" d="M-105.57,413.33c31.39,0,31.39,13.35,62.78,13.35S-11.4,413.33,20,413.33s31.39,13.35,62.79,13.35,31.39-13.35,62.79-13.35,31.39,13.35,62.79,13.35"/><line class="cls-1" x1="12.15" y1="576.96" x2="90.63" y2="263.04"/><line class="cls-1" x1="78.86" y1="447.47" x2="23.92" y2="392.53"/><line class="cls-1" x1="12.15" y1="451.39" x2="90.63" y2="388.61"/><path class="cls-1" d="M286.84,413.33c31.39,0,31.39,13.35,62.78,13.35S381,413.33,412.4,413.33s31.39,13.35,62.79,13.35,31.39-13.35,62.79-13.35,31.39,13.35,62.79,13.35"/><line class="cls-1" x1="404.56" y1="576.96" x2="483.04" y2="263.04"/><line class="cls-1" x1="471.27" y1="447.47" x2="416.33" y2="392.53"/><line class="cls-1" x1="404.56" y1="451.39" x2="483.04" y2="388.61"/><path class="cls-1" d="M-207.59,813.58c31.39,0,31.39,13.35,62.78,13.35s31.39-13.35,62.78-13.35,31.39,13.35,62.79,13.35,31.39-13.35,62.79-13.35,31.39,13.35,62.79,13.35"/><path class="cls-1" d="M184.81,813.58c31.39,0,31.39,13.35,62.78,13.35s31.39-13.35,62.78-13.35,31.39,13.35,62.79,13.35,31.39-13.35,62.79-13.35,31.39,13.35,62.79,13.35"/><line class="cls-1" x1="302.53" y1="977.21" x2="381.01" y2="663.29"/><line class="cls-1" x1="369.24" y1="847.72" x2="314.3" y2="792.79"/><line class="cls-1" x1="302.53" y1="851.65" x2="381.01" y2="788.86"/><path class="cls-1" d="M-3.54,13.07c31.39,0,31.39,13.35,62.78,13.35S90.63,13.07,122,13.07s31.39,13.35,62.79,13.35,31.39-13.35,62.79-13.35S279,26.42,310.38,26.42"/><line class="cls-1" x1="114.18" y1="176.71" x2="192.66" y2="-137.22"/><line class="cls-1" x1="180.89" y1="47.21" x2="125.95" y2="-7.72"/><line class="cls-1" x1="114.18" y1="51.14" x2="192.66" y2="-11.65"/><path class="cls-1" d="M388.86,13.07c31.39,0,31.39,13.35,62.78,13.35S483,13.07,514.42,13.07s31.39,13.35,62.79,13.35S608.6,13.07,640,13.07s31.39,13.35,62.79,13.35"/><line class="cls-1" x1="506.58" y1="176.71" x2="585.06" y2="-137.22"/><line class="cls-1" x1="573.29" y1="47.21" x2="518.35" y2="-7.72"/><line class="cls-1" x1="506.58" y1="51.14" x2="585.06" y2="-11.65"/></svg>